<?xml version="1.0" encoding="UTF-8"?>
<svg version="1.1" xmlns="http://www.w3.org/2000/svg" width="1024" height="1024">
<path d="M0 0 C337.92 0 675.84 0 1024 0 C1024 337.92 1024 675.84 1024 1024 C686.08 1024 348.16 1024 0 1024 C0 686.08 0 348.16 0 0 Z " fill="#FCFBFB" transform="translate(0,0)"/>
<path d="M0 0 C60.67487685 0 60.67487685 0 75.81640625 14.75390625 C76.53699219 15.49511719 77.25757813 16.23632812 78 17 C78.58652344 17.56589844 79.17304687 18.13179687 79.77734375 18.71484375 C89.80327563 29.14895607 90.46124559 42.83799942 90.2734375 56.41796875 C89.88914208 67.77751319 86.03765236 76.12353111 79 85 C78.401875 85.886875 77.80375 86.77375 77.1875 87.6875 C67.93824613 97.46528266 56.99454244 100.63735592 44 103 C29.48 103 14.96 103 0 103 C0 69.01 0 35.02 0 0 Z " fill="#2C3942" transform="translate(464,529)"/>
<path d="M0 0 C59.81598513 0 59.81598513 0 76.29296875 15.1015625 C87.45485754 26.95452508 89.59683271 39.80949689 89.3125 55.51953125 C88.87787231 66.11901412 85.50586392 74.61580266 79 83 C78.2575 84.03125 77.515 85.0625 76.75 86.125 C66.51675813 96.82338923 54.26378093 100.40658529 40 103 C26.8 103 13.6 103 0 103 C0 69.01 0 35.02 0 0 Z " fill="#2A3640" transform="translate(570,529)"/>
<path d="M0 0 C58.66037736 0 58.66037736 0 66.96875 7.86328125 C72.54036078 13.92583314 74.35095497 18.65429975 74.3125 26.9375 C74.32861328 27.62779297 74.34472656 28.31808594 74.36132812 29.02929688 C74.36685273 34.85775033 73.0372227 38.81080706 69.0625 43.08203125 C68.381875 43.65308594 67.70125 44.22414063 67 44.8125 C66.319375 45.39644531 65.63875 45.98039063 64.9375 46.58203125 C63 48 63 48 60 49 C60.67546875 49.37511719 61.3509375 49.75023437 62.046875 50.13671875 C68.7080602 53.95823685 73.53888309 57.39280298 76.45703125 64.79296875 C78.58065241 73.42495404 77.55311995 82.37117365 73 90 C66.34164368 98.7654311 58.73701805 100.85259639 48 103 C32.16 103 16.32 103 0 103 C0 69.01 0 35.02 0 0 Z " fill="#2A3640" transform="translate(268,529)"/>
<path d="M0 0 C7.59 0 15.18 0 23 0 C23 14.85 23 29.7 23 45 C38.84 45 54.68 45 71 45 C71 30.15 71 15.3 71 0 C78.59 0 86.18 0 94 0 C94 35.97 94 71.94 94 109 C86.74 109 79.48 109 72 109 C72 93.82 72 78.64 72 63 C55.83 63 39.66 63 23 63 C23 78.18 23 93.36 23 109 C15.41 109 7.82 109 0 109 C0 73.03 0 37.06 0 0 Z " fill="#148F91" transform="translate(176,386)"/>
<path d="M0 0 C3.30658871 2.48763843 5.6281981 5.26385222 8.09765625 8.578125 C8.54496094 8.19140625 8.99226563 7.8046875 9.453125 7.40625 C11.32908577 5.7902838 13.21274877 4.18364118 15.09765625 2.578125 C15.96390625 1.835625 16.83015625 1.093125 17.72265625 0.328125 C24.76029812 -4.85750585 33.72644305 -4.2629033 42.09765625 -3.421875 C45.51295621 -2.57149749 48.17729087 -1.3666598 51.09765625 0.578125 C51.66742187 0.94035156 52.2371875 1.30257813 52.82421875 1.67578125 C58.09597636 5.50624552 60.81978454 11.32120883 62.09765625 17.578125 C62.18421367 19.56390438 62.2153574 21.55237851 62.21118164 23.54003906 C62.21106834 25.34145355 62.21106834 25.34145355 62.21095276 27.17926025 C62.20579147 28.47104187 62.20063019 29.76282349 62.1953125 31.09375 C62.19344642 32.43324735 62.19202341 33.77274538 62.19102478 35.11224365 C62.1872146 38.63034972 62.17739716 42.14841421 62.1663208 45.66650391 C62.15607442 49.25943439 62.15152025 52.85237161 62.14648438 56.4453125 C62.1357735 63.48960192 62.11818887 70.53385637 62.09765625 77.578125 C55.49765625 77.578125 48.89765625 77.578125 42.09765625 77.578125 C42.08307373 76.03431152 42.06849121 74.49049805 42.0534668 72.89990234 C41.99542435 67.16334051 41.91819087 61.42716874 41.83520508 55.69091797 C41.80198389 53.20986265 41.77394327 50.72873227 41.7512207 48.24755859 C41.71762405 44.67773499 41.66530342 41.10859755 41.609375 37.5390625 C41.60298508 36.43259369 41.59659515 35.32612488 41.5900116 34.18612671 C41.46564729 27.64800009 40.90495566 22.97027845 36.59765625 17.765625 C32.545051 14.55731251 26.97916609 15.14074172 22.09765625 15.578125 C18.35063326 17.17260287 16.20440925 19.10198256 14.09765625 22.578125 C13.13587883 25.65408893 12.94801091 28.50051333 12.89233398 31.71386719 C12.86241615 33.24500153 12.86241615 33.24500153 12.83189392 34.80706787 C12.81518143 35.90198547 12.79846893 36.99690308 12.78125 38.125 C12.75007835 39.81450775 12.75007835 39.81450775 12.71827698 41.53814697 C12.65291292 45.13474449 12.5939574 48.73141477 12.53515625 52.328125 C12.49195855 54.7669346 12.44834385 57.20573684 12.40429688 59.64453125 C12.29724491 65.62232134 12.19594021 71.60018458 12.09765625 77.578125 C5.49765625 77.578125 -1.10234375 77.578125 -7.90234375 77.578125 C-7.91168945 76.07507813 -7.92103516 74.57203125 -7.93066406 73.0234375 C-7.97066173 67.42467061 -8.03644882 61.82644754 -8.10986328 56.22802734 C-8.13801606 53.80915332 -8.15925877 51.39018827 -8.17333984 48.97119141 C-8.19484742 45.48553051 -8.24154068 42.00095748 -8.29296875 38.515625 C-8.29419739 37.44135254 -8.29542603 36.36708008 -8.29669189 35.26025391 C-8.43942888 27.87350533 -9.46725812 22.11836631 -14.81640625 16.60546875 C-18.97043984 14.55956831 -23.40574884 14.99161262 -27.90234375 15.578125 C-32.42661924 17.75947211 -34.71238289 20.08294217 -36.90234375 24.578125 C-37.8747632 27.49538334 -38.05402194 29.46615939 -38.10766602 32.50854492 C-38.12761124 33.50935593 -38.14755646 34.51016693 -38.16810608 35.54130554 C-38.18481857 36.61951065 -38.20153107 37.69771576 -38.21875 38.80859375 C-38.2395311 39.91415115 -38.26031219 41.01970856 -38.28172302 42.1587677 C-38.34716707 45.6943229 -38.40607978 49.22995306 -38.46484375 52.765625 C-38.50803385 55.16081508 -38.55164829 57.55599755 -38.59570312 59.95117188 C-38.70284327 65.82674588 -38.80412543 71.70239536 -38.90234375 77.578125 C-45.50234375 77.578125 -52.10234375 77.578125 -58.90234375 77.578125 C-58.90234375 51.178125 -58.90234375 24.778125 -58.90234375 -2.421875 C-52.30234375 -2.421875 -45.70234375 -2.421875 -38.90234375 -2.421875 C-38.57234375 0.218125 -38.24234375 2.858125 -37.90234375 5.578125 C-37.32226562 5.09601563 -36.7421875 4.61390625 -36.14453125 4.1171875 C-35.36335938 3.48554688 -34.5821875 2.85390625 -33.77734375 2.203125 C-33.01164062 1.57664062 -32.2459375 0.95015625 -31.45703125 0.3046875 C-22.41082195 -5.80911145 -9.26814209 -5.38449657 0 0 Z " fill="#138B8E" transform="translate(499.90234375,417.421875)"/>
<path d="M0 0 C10.25285417 5.48408479 17.94830727 12.28097719 22.3515625 23.2578125 C22.70863281 24.13824219 23.06570313 25.01867187 23.43359375 25.92578125 C26.3297092 36.43806415 25.62227499 49.68213919 20.3515625 59.2578125 C14.16344903 69.52861622 4.99670941 76.51103436 -6.55932617 79.80200195 C-19.15750113 82.55072144 -31.56320718 80.15051651 -42.3984375 73.5078125 C-51.20538194 67.20141121 -57.72186633 58.09720789 -59.6484375 47.2578125 C-60.5560146 33.07878012 -58.92021108 21.61627294 -49.6484375 10.2578125 C-37.51170662 -2.97255787 -16.51274369 -7.3105955 0 0 Z " fill="#138C8F" transform="translate(634.6484375,416.7421875)"/>
<path d="M0 0 C8.80883546 6.3077554 15.3198072 15.40972529 17.25 26.25 C18.12377954 39.77209642 17.26547792 51.54212523 8.08984375 62.2890625 C0.60504309 70.26649335 -8.55114225 75.8147866 -19.69140625 76.48828125 C-32.88468887 76.80577813 -43.26282331 74.85384628 -53.75 66.25 C-61.45393633 58.89693601 -66.52088348 49.82243574 -67.0859375 39.015625 C-67.38238706 24.26604433 -64.436005 14.43832819 -54.12890625 3.53515625 C-39.39033953 -10.35514763 -16.50160059 -10.11655916 0 0 Z " fill="#148C8F" transform="translate(349.75,420.75)"/>
<path d="M0 0 C6.93 0 13.86 0 21 0 C21.01458252 2.01279053 21.02916504 4.02558105 21.04418945 6.09936523 C21.09470544 12.77705749 21.16132967 19.45452072 21.23571491 26.13198757 C21.28029169 30.17740799 21.31957505 34.22273063 21.34643555 38.26831055 C21.37259614 42.17832144 21.41308666 46.08795352 21.46318626 49.99772835 C21.47976931 51.48347292 21.49133659 52.96928288 21.49761391 54.45510674 C21.43407657 68.03041428 21.43407657 68.03041428 27.3125 79.875 C33.72865924 84.94824219 38.96816607 85.85345542 47 85 C52.12557135 83.76411457 55.67951542 81.05837005 59 77 C61.48560755 72.03896247 62.38148229 68.40805827 62.43237305 62.77954102 C62.4425647 62.09576889 62.45275635 61.41199677 62.46325684 60.70750427 C62.49317789 58.472886 62.5026201 56.23869779 62.51171875 54.00390625 C62.52858104 52.44447936 62.54673336 50.88506593 62.56611633 49.32566833 C62.61345451 45.2404908 62.6433681 41.15536788 62.66955566 37.07000732 C62.69944329 32.8935671 62.74594527 28.71731472 62.79101562 24.54101562 C62.87686456 16.36075418 62.94275381 8.18051167 63 0 C69.93 0 76.86 0 84 0 C84.09083791 9.16309975 84.16402296 18.3258941 84.20724869 27.4893446 C84.22800844 31.74559114 84.25610982 36.00151021 84.30175781 40.25756836 C84.34563508 44.37490815 84.36922409 48.49193556 84.37950897 52.60949135 C84.38682606 54.17017844 84.40111157 55.73085096 84.42292023 57.29140282 C84.59325716 70.00064449 83.55006342 82.03785185 74.9140625 92.0703125 C65.71463947 101.34483286 55.42104355 105.22246121 42.5625 105.375 C30.23701431 105.41050095 20.614578 102.41437918 11.15625 94.23046875 C0.42575582 83.13062785 -0.44452129 69.88442033 -0.29296875 55.2734375 C-0.28736255 53.67347616 -0.2830973 52.07350962 -0.28010559 50.47354126 C-0.26873728 46.29450874 -0.23934079 42.11579686 -0.20599365 37.93688965 C-0.17511835 33.65979345 -0.16156321 29.38264465 -0.14648438 25.10546875 C-0.11446194 16.73681676 -0.06176121 8.3684854 0 0 Z " fill="#29353F" transform="translate(360,529)"/>
<path d="M0 0 C9.81673722 7.21027308 15.43866801 15.13698868 18 27 C18 32.28 18 37.56 18 43 C-10.71 43.495 -10.71 43.495 -40 44 C-37.17188943 51.54162819 -35.9377896 54.6733804 -29.26953125 58.61328125 C-25.5974177 60.17074877 -22.97362168 60.40114225 -19 60.375 C-17.824375 60.38273437 -16.64875 60.39046875 -15.4375 60.3984375 C-11.1451402 59.90091398 -7.52655933 58.77148523 -4.63354492 55.41430664 C-2.40630883 53.4859882 -1.02622548 53.65406863 1.88671875 53.70703125 C3.2934082 53.7215332 3.2934082 53.7215332 4.72851562 53.73632812 C5.70498047 53.76146484 6.68144531 53.78660156 7.6875 53.8125 C8.67556641 53.82603516 9.66363281 53.83957031 10.68164062 53.85351562 C13.12164231 53.88887797 15.56054719 53.93822967 18 54 C15.25782998 63.26480743 9.20372488 70.02941899 1 75 C0.33097656 75.41378906 -0.33804688 75.82757813 -1.02734375 76.25390625 C-10.68664774 81.12599807 -25.04522602 80.74663176 -35.1875 77.4375 C-47.03933804 72.16176018 -54.33118864 63.58900987 -59.01953125 51.76953125 C-62.65356996 41.50445777 -62.1769928 29.72465044 -58.25390625 19.609375 C-53.28191139 9.26266918 -44.32064625 0.9068062 -33.57421875 -3.15234375 C-22.89306798 -5.68546912 -9.61372398 -5.77442681 0 0 Z " fill="#138C8F" transform="translate(821,418)"/>
<path d="M0 0 C7.17722786 4.34983507 10.41124266 11.23372797 13 19 C13.08852819 20.88656815 13.11762222 22.77615524 13.11352539 24.66479492 C13.11341209 26.40626045 13.11341209 26.40626045 13.11329651 28.1829071 C13.10813522 29.43610245 13.10297394 30.68929779 13.09765625 31.98046875 C13.0962413 33.26359451 13.09482635 34.54672028 13.09336853 35.86872864 C13.08955405 39.27670241 13.07973291 42.68463343 13.06866455 46.09259033 C13.05842743 49.57148663 13.05386598 53.05038985 13.04882812 56.52929688 C13.03810967 63.35288389 13.02052152 70.17643549 13 77 C6.4 77 -0.2 77 -7 77 C-7.01458252 75.52200928 -7.02916504 74.04401855 -7.04418945 72.52124023 C-7.10229843 67.02132352 -7.1795313 61.5218108 -7.26245117 56.0222168 C-7.29564115 53.64500501 -7.32369141 51.26771554 -7.34643555 48.89038086 C-7.38008986 45.46694942 -7.43241301 42.04422604 -7.48828125 38.62109375 C-7.49467117 37.56353378 -7.5010611 36.50597382 -7.50764465 35.41636658 C-7.62415259 29.5273955 -8.11402749 25.17951791 -11 20 C-15.7750608 15.57433389 -18.94367945 14.58237979 -25.32421875 14.65625 C-29.61144159 15.20701731 -32.93951167 16.96071598 -36 20 C-39.75747122 25.66127218 -39.47308594 31.18483891 -39.51171875 37.7421875 C-39.52966995 38.86569611 -39.54762115 39.98920471 -39.56611633 41.14675903 C-39.62014614 44.72280159 -39.65409246 48.29871119 -39.6875 51.875 C-39.72067944 54.30470597 -39.75516967 56.73439441 -39.79101562 59.1640625 C-39.87586887 65.10927899 -39.94271567 71.05445654 -40 77 C-46.93 77 -53.86 77 -61 77 C-61 50.6 -61 24.2 -61 -3 C-54.4 -3 -47.8 -3 -41 -3 C-40.67 0.3 -40.34 3.6 -40 7 C-39.46375 6.2575 -38.9275 5.515 -38.375 4.75 C-28.53841196 -6.63973352 -12.65412527 -6.48929501 0 0 Z " fill="#169092" transform="translate(734,418)"/>
<path d="M0 0 C4.06153166 -0.23272688 8.12135243 -0.37454311 12.1875 -0.5 C13.33798828 -0.56703125 14.48847656 -0.6340625 15.67382812 -0.703125 C23.87742654 -0.89335337 23.87742654 -0.89335337 26.63085938 1.29785156 C28.01299953 3.45236415 28.97645966 5.65219168 30 8 C30.93620869 9.70939033 31.87376126 11.41814823 32.83079529 13.1159668 C33.89612392 15.0080164 34.94105734 16.91000828 35.98046875 18.81640625 C36.33286621 19.4623877 36.68526367 20.10836914 37.04833984 20.77392578 C37.76994168 22.09833514 38.49129326 23.42288088 39.21240234 24.74755859 C40.26660843 26.68209583 41.32454787 28.61455578 42.3828125 30.546875 C43.31697998 32.26148926 43.31697998 32.26148926 44.27001953 34.01074219 C45.71345691 36.50487813 47.20625612 38.75180434 49 41 C49.34144043 40.36199463 49.68288086 39.72398926 50.03466797 39.06665039 C50.51564941 38.16938232 50.99663086 37.27211426 51.4921875 36.34765625 C52.02634277 35.35056641 52.56049805 34.35347656 53.11083984 33.32617188 C54.29410538 31.13714701 55.48993021 28.95486786 56.69775391 26.77929688 C59.45953239 21.79853418 62.12024149 16.8945548 64.28125 11.62109375 C68.21327653 2.6075942 68.21327653 2.6075942 72 0 C79.50605933 -1.96424087 87.40349719 -1.04952933 95 0 C93.54183612 3.94580691 91.67981901 7.43821372 89.54296875 11.05859375 C89.20337631 11.63613907 88.86378387 12.21368439 88.51390076 12.80873108 C87.40841525 14.68696368 86.29802727 16.5622448 85.1875 18.4375 C84.42141317 19.73680288 83.65562798 21.03628365 82.89013672 22.3359375 C80.96333379 25.60541944 79.03249622 28.87249733 77.10040283 32.13885498 C75.42794571 34.96753295 73.75900772 37.79828414 72.08984375 40.62890625 C63.09781172 55.86995137 63.09781172 55.86995137 61.37329102 58.1628418 C59.3709681 62.29955194 59.52078275 66.13420239 59.48828125 70.67578125 C59.47033005 71.6009404 59.45237885 72.52609955 59.43388367 73.47929382 C59.37985921 76.42365003 59.34591009 79.36784484 59.3125 82.3125 C59.27931999 84.31317346 59.2448297 86.31382565 59.20898438 88.31445312 C59.12167878 93.20965764 59.06154319 98.10413297 59 103 C51.74 103 44.48 103 37 103 C37.07863281 100.22335937 37.15726563 97.44671875 37.23828125 94.5859375 C37.58681698 74.25739341 37.85105545 57.9551024 24.77978516 41.35058594 C21.77119296 37.3770982 19.36823369 33.05761867 16.875 28.75 C15.90215643 27.12147055 14.92562857 25.49513598 13.9453125 23.87109375 C13.46481445 23.07429199 12.98431641 22.27749023 12.48925781 21.45654297 C10.93593052 18.89431686 9.37221888 16.33871544 7.8046875 13.78515625 C7.29180176 12.94952148 6.77891602 12.11388672 6.25048828 11.25292969 C5.26932934 9.65714954 4.28601808 8.06269021 3.30029297 6.46972656 C0 1.10843431 0 1.10843431 0 0 Z " fill="#2B3842" transform="translate(657,529)"/>
<path d="M0 0 C30.17327766 0 30.17327766 0 40 9 C47.12234098 18.37952827 48.97710525 27.37368436 48 39 C46.40825303 47.04451764 43.43483751 53.74508543 37 59 C24.38531573 66.77484393 16.68177387 65 0 65 C0 43.55 0 22.1 0 0 Z " fill="#FCFBFB" transform="translate(485,548)"/>
<path d="M0 0 C27.0498615 0 27.0498615 0 35 5 C35.61617187 5.37253906 36.23234375 5.74507812 36.8671875 6.12890625 C43.03943136 10.53545846 46.67168345 18.754637 48 26 C48.91957975 36.6388303 47.65378083 45.92300287 40.75 54.375 C35.0936391 60.27308572 29.8751302 62.7499628 22 65 C14.74 65 7.48 65 0 65 C0 43.55 0 22.1 0 0 Z " fill="#FCFBFA" transform="translate(590,548)"/>
<path d="M0 0 C6.6 0 13.2 0 20 0 C20.33 3.63 20.66 7.26 21 11 C22.5159375 9.1128125 22.5159375 9.1128125 24.0625 7.1875 C27.44061632 3.38543681 29.96671473 1.32020597 35 0 C39.03696657 -0.21807734 42.95028544 -0.13650723 47 0 C47 5.94 47 11.88 47 18 C45.370625 18.0825 43.74125 18.165 42.0625 18.25 C35.21397494 18.88543016 29.55948208 20.50614567 24.5625 25.375 C20.82527891 31.65353144 20.67020308 37.53420405 20.5859375 44.6484375 C20.56657135 45.66096588 20.5472052 46.67349426 20.5272522 47.71670532 C20.46769277 50.93605242 20.42116552 54.15543574 20.375 57.375 C20.33679849 59.56381728 20.2977455 61.75261988 20.2578125 63.94140625 C20.16041533 69.29419244 20.08065838 74.64683091 20 80 C13.4 80 6.8 80 0 80 C0 53.6 0 27.2 0 0 Z " fill="#138B8E" transform="translate(381,415)"/>
<path d="M0 0 C5.90341671 4.17558743 9.70202144 9.00626373 12.3125 15.75 C13.24444758 23.43856752 12.50531747 30.20208596 8.2734375 36.83203125 C5.09195101 40.87268923 1.70089713 43.74872832 -3.4375 44.8125 C-10.85957337 45.63148741 -17.32026681 45.40753795 -23.4375 40.8125 C-28.60832568 35.64167432 -31.55059038 30.29374423 -31.8125 22.9375 C-31.53312688 14.94499932 -29.31033117 8.42431645 -23.4375 2.8125 C-16.55257771 -2.32717454 -7.99704229 -2.76261461 0 0 Z " fill="#FAFAFA" transform="translate(626.4375,433.1875)"/>
<path d="M0 0 C6.24290641 4.64588384 11.01080765 10.28117304 12.6875 18 C13.42711526 25.76596018 11.8239243 32.66897984 6.9375 38.875 C2.09875615 43.96158195 -2.41297975 45.16229919 -9.25 45.4375 C-16.52953573 45.22821335 -20.90026169 43.30502772 -26.125 38.3125 C-30.08052016 32.32271233 -32.08705469 26.2291771 -31.3125 19 C-29.51777265 11.60000099 -26.90192263 5.38314675 -20.3125 1.125 C-13.80901172 -2.20736589 -6.90173972 -2.08354407 0 0 Z " fill="#FBFBFB" transform="translate(334.3125,433)"/>
<path d="M0 0 C5.6925 -0.12375 5.6925 -0.12375 11.5 -0.25 C12.68013672 -0.28641602 13.86027344 -0.32283203 15.07617188 -0.36035156 C22.47287164 -0.43776469 27.99139199 0.48238718 33.65039062 5.44824219 C36.61854565 8.86097615 36.29595303 12.70868101 36 17 C34.36233349 21.40122874 31.69696143 23.15756057 27.52734375 25.1730957 C22.48015209 26.82445178 17.25031639 26.40514795 12 26.25 C8.04 26.1675 4.08 26.085 0 26 C0 17.42 0 8.84 0 0 Z " fill="#F7F7F7" transform="translate(288,588)"/>
<path d="M0 0 C4.00125 -0.0825 8.0025 -0.165 12.125 -0.25 C13.37555176 -0.28641602 14.62610352 -0.32283203 15.91455078 -0.36035156 C22.23200939 -0.4234549 26.28877859 -0.40983014 31 4 C33.83799806 8.25699709 33.75371584 12.00371868 33 17 C31.34844133 20.4803232 29.04911137 22.51196401 25.53125 24.1484375 C20.53774416 25.35262364 15.73842442 25.21011076 10.625 25.125 C7.11875 25.08375 3.6125 25.0425 0 25 C0 16.75 0 8.5 0 0 Z " fill="#F9F9F9" transform="translate(288,547)"/>
<path d="M0 0 C3.35418964 1.97547365 5.58524352 3.89032532 7.5625 7.3125 C8.2225 10.2825 8.8825 13.2525 9.5625 16.3125 C-3.3075 16.3125 -16.1775 16.3125 -29.4375 16.3125 C-28.30461069 8.38227482 -28.30461069 8.38227482 -24.6875 4.5 C-23.67429687 3.37658203 -23.67429687 3.37658203 -22.640625 2.23046875 C-16.46244941 -3.14804936 -7.28229334 -3.3684016 0 0 Z " fill="#F6F9F8" transform="translate(810.4375,431.6875)"/>
<path d="M0 0 C7.59 0 15.18 0 23 0 C22.67 14.85 22.34 29.7 22 45 C21.67 45 21.34 45 21 45 C21 30.81 21 16.62 21 2 C11.595 2.495 11.595 2.495 2 3 C2 37.32 2 71.64 2 107 C8.27 107 14.54 107 21 107 C20.99476318 105.67234619 20.98952637 104.34469238 20.98413086 102.97680664 C20.96608574 98.06991241 20.95456979 93.16302113 20.94506836 88.25610352 C20.94002702 86.12881986 20.93319409 84.00153969 20.92456055 81.87426758 C20.91248621 78.82372174 20.90676986 75.77322155 20.90234375 72.72265625 C20.89718246 71.76537125 20.89202118 70.80808624 20.88670349 69.8217926 C20.88659019 68.50053627 20.88659019 68.50053627 20.88647461 67.15258789 C20.884254 66.37315323 20.88203339 65.59371857 20.87974548 64.79066467 C21 63 21 63 22 62 C23.56547048 61.90673284 25.13512772 61.88254418 26.70336914 61.88647461 C27.70433121 61.88655014 28.70529327 61.88662567 29.73658752 61.88670349 C30.8251152 61.89186478 31.91364288 61.89702606 33.03515625 61.90234375 C34.6977372 61.90446617 34.6977372 61.90446617 36.39390564 61.90663147 C39.95013069 61.91224967 43.50629383 61.92480525 47.0625 61.9375 C49.46679597 61.94251266 51.87109292 61.94707597 54.27539062 61.95117188 C60.18361504 61.96222501 66.0918031 61.97898083 72 62 C72 62.33 72 62.66 72 63 C55.83 63 39.66 63 23 63 C23 78.18 23 93.36 23 109 C15.41 109 7.82 109 0 109 C0 73.03 0 37.06 0 0 Z " fill="#0E7D83" transform="translate(176,386)"/>
<path d="M0 0 C0.66 0 1.32 0 2 0 C2 32.67 2 65.34 2 99 C17.18 99 32.36 99 48 99 C33.67674773 106.16162613 16.01388287 101 0 101 C0 67.67 0 34.34 0 0 Z " fill="#0C1621" transform="translate(464,531)"/>
<path d="M0 0 C0.33 0 0.66 0 1 0 C1 18.81 1 37.62 1 57 C7.27 57 13.54 57 20 57 C19.99476318 55.67234619 19.98952637 54.34469238 19.98413086 52.97680664 C19.96608574 48.06991241 19.95456979 43.16302113 19.94506836 38.25610352 C19.94002702 36.12881986 19.93319409 34.00153969 19.92456055 31.87426758 C19.91248621 28.82372174 19.90676986 25.77322155 19.90234375 22.72265625 C19.89718246 21.76537125 19.89202118 20.80808624 19.88670349 19.8217926 C19.88659019 18.50053627 19.88659019 18.50053627 19.88647461 17.15258789 C19.884254 16.37315323 19.88203339 15.59371857 19.87974548 14.79066467 C20 13 20 13 21 12 C22.56547048 11.90673284 24.13512772 11.88254418 25.70336914 11.88647461 C26.70433121 11.88655014 27.70529327 11.88662567 28.73658752 11.88670349 C29.8251152 11.89186478 30.91364288 11.89702606 32.03515625 11.90234375 C33.6977372 11.90446617 33.6977372 11.90446617 35.39390564 11.90663147 C38.95013069 11.91224967 42.50629383 11.92480525 46.0625 11.9375 C48.46679597 11.94251266 50.87109292 11.94707597 53.27539062 11.95117188 C59.18361504 11.96222501 65.0918031 11.97898083 71 12 C71 12.33 71 12.66 71 13 C54.83 13 38.66 13 22 13 C22 28.18 22 43.36 22 59 C14.74 59 7.48 59 0 59 C0 39.53 0 20.06 0 0 Z " fill="#037377" transform="translate(177,436)"/>
<path d="M0 0 C0.66 0 1.32 0 2 0 C2 25.08 2 50.16 2 76 C7.61 76 13.22 76 19 76 C19 61.48 19 46.96 19 32 C19.33 32 19.66 32 20 32 C20 47.18 20 62.36 20 78 C13.4 78 6.8 78 0 78 C0 52.26 0 26.52 0 0 Z " fill="#017378" transform="translate(673,417)"/>
<path d="M0 0 C0.33 0 0.66 0 1 0 C1 17.82 1 35.64 1 54 C-5.6 54 -12.2 54 -19 54 C-19 37.17 -19 20.34 -19 3 C-17.15477852 6.69044296 -16.75139142 7.74767293 -16.77294922 11.58496094 C-16.77310028 12.48559265 -16.77325134 13.38622437 -16.77340698 14.31414795 C-16.78372955 15.27782288 -16.79405212 16.2414978 -16.8046875 17.234375 C-16.8075174 18.22753723 -16.81034729 19.22069946 -16.81326294 20.24395752 C-16.82444857 23.41276144 -16.84955038 26.58128165 -16.875 29.75 C-16.88503188 31.8997355 -16.89415737 34.04947543 -16.90234375 36.19921875 C-16.92438264 41.46625497 -16.95890158 46.7330794 -17 52 C-11.39 52 -5.78 52 0 52 C0 34.84 0 17.68 0 0 Z " fill="#017174" transform="translate(746,441)"/>
<path d="M0 0 C7.59 0 15.18 0 23 0 C23 10.89 23 21.78 23 33 C22.67 33 22.34 33 22 33 C21.505 17.655 21.505 17.655 21 2 C14.73 2 8.46 2 2 2 C2 15.86 2 29.72 2 44 C1.34 44 0.68 44 0 44 C0 29.48 0 14.96 0 0 Z " fill="#138084" transform="translate(247,386)"/>
<path d="M0 0 C6.93 0 13.86 0 21 0 C21 12.54 21 25.08 21 38 C20.67 38 20.34 38 20 38 C19.67 46.25 19.34 54.5 19 63 C18.67 63 18.34 63 18 63 C18 43.2 18 23.4 18 3 C12.39 3 6.78 3 1 3 C0.67 2.01 0.34 1.02 0 0 Z " fill="#3E4850" transform="translate(360,529)"/>
<path d="M0 0 C7.59 0 15.18 0 23 0 C22.67 0.99 22.34 1.98 22 3 C15.07 3 8.14 3 1 3 C-1.64 7.62 -4.28 12.24 -7 17 C-8 14 -8 14 -6.34765625 10.64453125 C-5.59811728 9.36000261 -4.8337835 8.08409124 -4.0625 6.8125 C-2.721875 4.564375 -1.38125 2.31625 0 0 Z " fill="#21262B" transform="translate(729,529)"/>
<path d="M0 0 C4.06153166 -0.23272688 8.12135243 -0.37454311 12.1875 -0.5 C13.33798828 -0.56703125 14.48847656 -0.6340625 15.67382812 -0.703125 C23.99402449 -0.89605709 23.99402449 -0.89605709 26.88134766 1.67578125 C29.00513985 4.9711364 30.14414275 8.18856809 31 12 C27.75487649 9.21846556 27.13307612 7.26615224 25 3 C18.07 3 11.14 3 4 3 C3.67 3.99 3.34 4.98 3 6 C2.01 4.02 1.02 2.04 0 0 Z " fill="#23272C" transform="translate(657,529)"/>
<path d="M0 0 C0.96808594 0.04189453 1.93617188 0.08378906 2.93359375 0.12695312 C3.91714844 0.14951172 4.90070312 0.17207031 5.9140625 0.1953125 C8.33878845 0.25416507 10.76041358 0.33631882 13.18359375 0.43945312 C12.58175626 2.45990755 11.91053279 4.46056352 11.18359375 6.43945312 C10.19359375 6.93445313 10.19359375 6.93445313 9.18359375 7.43945312 C9.51359375 6.11945313 9.84359375 4.79945313 10.18359375 3.43945312 C7.2666785 3.38543618 4.35076651 3.34577246 1.43359375 3.31445312 C0.60859375 3.29769531 -0.21640625 3.2809375 -1.06640625 3.26367188 C-1.865625 3.25722656 -2.66484375 3.25078125 -3.48828125 3.24414062 C-4.5880127 3.22843018 -4.5880127 3.22843018 -5.70996094 3.21240234 C-8.11536701 3.47167769 -9.72892119 4.24719387 -11.81640625 5.43945312 C-8.83361757 -0.13134337 -5.79073736 -0.0998403 0 0 Z " fill="#0D787D" transform="translate(825.81640625,471.560546875)"/>
<path d="M0 0 C0.99 0.33 1.98 0.66 3 1 C1.2863049 5.79834628 -2.61431921 7.80715961 -7 10 C-6.84819155 7.34335221 -6.47988575 5.54782138 -4.703125 3.51953125 C-3.125 2.125 -3.125 2.125 0 0 Z " fill="#128589" transform="translate(702,417)"/>
<path d="M0 0 C1.60031344 3.20062687 0.03173691 5.72271806 -1 9 C-1.66 9 -2.32 9 -3 9 C-4.6446674 11.46326712 -4.6446674 11.46326712 -6 14 C-6.33 13.34 -6.66 12.68 -7 12 C-5.56640625 9.1796875 -5.56640625 9.1796875 -3.5625 5.875 C-2.57443359 4.23144531 -2.57443359 4.23144531 -1.56640625 2.5546875 C-1.04949219 1.71164062 -0.53257812 0.86859375 0 0 Z " fill="#14191F" transform="translate(719,547)"/>
<path d="M0 0 C-1.69179328 2.04219706 -2.63727666 2.91793306 -5.26171875 3.51171875 C-6.06222656 3.56972656 -6.86273437 3.62773438 -7.6875 3.6875 C-8.49574219 3.75324219 -9.30398438 3.81898438 -10.13671875 3.88671875 C-11.05904297 3.94279297 -11.05904297 3.94279297 -12 4 C-11.01 3.67 -10.02 3.34 -9 3 C-9 2.34 -9 1.68 -9 1 C-3.375 -1.125 -3.375 -1.125 0 0 Z " fill="#202930" transform="translate(628,626)"/>
<path d="M0 0 C0.99 0.33 1.98 0.66 3 1 C3.99 1 4.98 1 6 1 C4.35 2.98 2.7 4.96 1 7 C-1 4 -1 4 -0.625 1.8125 C-0.41875 1.214375 -0.2125 0.61625 0 0 Z " fill="#0E7F82" transform="translate(513,433)"/>
<path d="M0 0 C2.31 0 4.62 0 7 0 C7.33 0.66 7.66 1.32 8 2 C4.71303767 2.79953138 3.28976808 3.09658936 0 2 C0 1.34 0 0.68 0 0 Z " fill="#222C34" transform="translate(509,628)"/>
</svg>
