<?xml version="1.0" encoding="UTF-8"?>
<svg version="1.1" xmlns="http://www.w3.org/2000/svg" width="1024" height="1024">
<path d="M0 0 C1.4540625 1.2065625 1.4540625 1.2065625 2.9375 2.4375 C2.9375 3.0975 2.9375 3.7575 2.9375 4.4375 C3.5975 4.4375 4.2575 4.4375 4.9375 4.4375 C4.9375 5.0975 4.9375 5.7575 4.9375 6.4375 C5.91589844 5.62345703 5.91589844 5.62345703 6.9140625 4.79296875 C16.89444086 -3.37681 24.01864861 -6.48300784 36.9375 -5.5625 C41.91543079 -4.518084 46.43354368 -2.9168408 50.9375 -0.5625 C50.9375 0.0975 50.9375 0.7575 50.9375 1.4375 C51.515 1.623125 52.0925 1.80875 52.6875 2 C57.07453592 4.8028285 59.32417943 10.5975383 60.9375 15.4375 C61.69668005 19.38084331 62.07810783 23.15518561 62.14282227 27.16748047 C62.1727401 28.81851273 62.1727401 28.81851273 62.20326233 30.50289917 C62.21997482 31.67498932 62.23668732 32.84707947 62.25390625 34.0546875 C62.27468735 35.26698029 62.29546844 36.47927307 62.31687927 37.728302 C62.38210982 41.5896453 62.44113651 45.45105491 62.5 49.3125 C62.54321041 51.93490261 62.5868255 54.55729859 62.63085938 57.1796875 C62.73776404 63.59888882 62.8395791 70.01815569 62.9375 76.4375 C60.16935668 77.16586047 57.79997038 77.5494736 54.93359375 77.5 C53.82274414 77.48839844 53.82274414 77.48839844 52.68945312 77.4765625 C51.92568359 77.46367187 51.16191406 77.45078125 50.375 77.4375 C44.57862455 77.26386684 44.57862455 77.26386684 38.9375 78.4375 C38.93163376 77.8141124 38.92576752 77.19072479 38.91972351 76.54844666 C38.85564277 70.04282655 38.77118514 63.53769441 38.67504883 57.0324707 C38.64185534 54.60675502 38.61380616 52.18096314 38.59106445 49.75512695 C38.55741669 46.26220316 38.50509369 42.76997415 38.44921875 39.27734375 C38.44282883 38.19791 38.4364389 37.11847626 38.42985535 36.0063324 C38.30071534 29.34824694 37.98188074 23.58685939 33.125 18.5625 C28.20524247 16.03233898 23.94072313 16.2175765 18.765625 17.71875 C16.00273613 18.805014 14.64342965 20.00983088 12.9375 22.4375 C10.72637868 28.4922387 10.5964005 34.21736591 10.5234375 40.62109375 C10.50407135 41.67659927 10.4847052 42.7321048 10.4647522 43.81959534 C10.40525447 47.1713162 10.35869035 50.52307197 10.3125 53.875 C10.2742928 56.15561345 10.23523949 58.43621289 10.1953125 60.71679688 C10.09957758 66.2902397 10.01444383 71.86376777 9.9375 77.4375 C7.2290983 77.46464434 4.52097279 77.48440846 1.8125 77.5 C0.67167969 77.51256836 0.67167969 77.51256836 -0.4921875 77.52539062 C-4.8014644 77.54396509 -8.81766474 77.29867265 -13.0625 76.4375 C-12.5675 74.9525 -12.5675 74.9525 -12.0625 73.4375 C-12.7225 73.4375 -13.3825 73.4375 -14.0625 73.4375 C-14.0625 70.4675 -14.0625 67.4975 -14.0625 64.4375 C-13.7325 64.4375 -13.4025 64.4375 -13.0625 64.4375 C-12.98811027 59.13561034 -12.93378489 53.83402732 -12.89770508 48.53173828 C-12.8826576 46.72960108 -12.8622147 44.92750027 -12.83618164 43.12548828 C-12.79961979 40.52887979 -12.78273319 37.93275725 -12.76953125 35.3359375 C-12.75404739 34.5357016 -12.73856354 33.7354657 -12.72261047 32.91098022 C-12.72114666 27.99914731 -13.38634965 24.71533839 -16.0625 20.4375 C-19.54856305 17.08828653 -22.76597977 16.6451004 -27.45703125 16.3125 C-31.56316154 16.50949576 -34.96873568 17.70098329 -38.0625 20.4375 C-41.67122976 25.93085013 -41.42501362 30.83549235 -41.28515625 37.1640625 C-41.27616806 38.18930023 -41.26717987 39.21453796 -41.25791931 40.27084351 C-41.2279789 43.53507884 -41.17817969 46.79856658 -41.125 50.0625 C-41.0771654 53.33352112 -41.03384405 56.60435456 -41.00279236 59.87557983 C-40.98304127 61.90795187 -40.95341966 63.94025735 -40.91285706 65.97232056 C-40.90302292 66.89362762 -40.89318878 67.81493469 -40.88305664 68.76416016 C-40.8695668 69.57213043 -40.85607697 70.38010071 -40.84217834 71.21255493 C-41.08731258 73.68807283 -41.82427317 75.29872547 -43.0625 77.4375 C-49.49561296 77.53257063 -55.72008005 77.59066726 -62.0625 76.4375 C-62.0625 77.4275 -62.0625 78.4175 -62.0625 79.4375 C-63.0525 79.1075 -64.0425 78.7775 -65.0625 78.4375 C-65.0625 50.77083333 -65.0625 23.10416667 -65.0625 -4.5625 C-57.8025 -4.5625 -50.5425 -4.5625 -43.0625 -4.5625 C-42.7325 -1.9225 -42.4025 0.7175 -42.0625 3.4375 C-41.4025 2.4475 -40.7425 1.4575 -40.0625 0.4375 C-37.6015625 -0.9140625 -37.6015625 -0.9140625 -34.6875 -2.1875 C-33.73101562 -2.61289062 -32.77453125 -3.03828125 -31.7890625 -3.4765625 C-21.12106686 -7.72542036 -9.47070516 -6.40219669 0 0 Z " fill="#2298B0" transform="translate(502.0625,416.5625)"/>
<path d="M0 0 C7.52556829 -0.07636215 15.05103582 -0.12873076 22.5769043 -0.16479492 C25.13455947 -0.1798371 27.69218904 -0.20027589 30.24975586 -0.22631836 C33.93609963 -0.26290204 37.62210091 -0.27977268 41.30859375 -0.29296875 C42.44332626 -0.30845261 43.57805878 -0.32393646 44.74717712 -0.33988953 C55.84833043 -0.34221769 63.95007053 2.14365601 72 10 C77.13682291 16.77834208 77.62216871 23.7591993 77 32 C75.14862363 38.42536505 70.74819842 44.92498682 64.77734375 48.23046875 C64.19082031 48.48441406 63.60429687 48.73835937 63 49 C63.87011719 49.47566406 63.87011719 49.47566406 64.7578125 49.9609375 C71.20738967 53.81365522 74.94556037 58.11660211 78 65 C80.35013963 74.53032083 78.69964295 82.58075196 73.8203125 91.046875 C69.05463151 97.41991585 60.70177377 101.43154846 53 103 C51.02741144 103.14721333 49.05108301 103.24723196 47.07421875 103.31640625 C45.89496826 103.35838135 44.71571777 103.40035645 43.50073242 103.44360352 C42.24236572 103.48283936 40.98399902 103.5220752 39.6875 103.5625 C37.76031128 103.62618774 37.76031128 103.62618774 35.79418945 103.69116211 C24.19446842 104.04744796 12.60392375 104.1115267 1 104 C-1.52253589 99.17514837 -1.23176148 94.6405887 -1.13525391 89.34448242 C-1.12106163 87.89498199 -1.12106163 87.89498199 -1.10658264 86.41619873 C-1.07296362 83.22909382 -1.02483181 80.04238264 -0.9765625 76.85546875 C-0.95038935 74.64302086 -0.92512283 72.43056207 -0.90072632 70.21809387 C-0.83413457 64.39993483 -0.7552286 58.5820054 -0.67376709 52.76403809 C-0.59278943 46.82520347 -0.52344512 40.88623431 -0.453125 34.94726562 C-0.31347605 23.29801581 -0.16081901 11.64897544 0 0 Z M23 17 C23 25.25 23 33.5 23 42 C26.485625 42.0825 29.97125 42.165 33.5625 42.25 C34.64732666 42.28641602 35.73215332 42.32283203 36.84985352 42.36035156 C43.12392429 42.43191672 46.96990554 41.86203226 52 38 C54.0146188 35.21052781 54.27328529 32.89965231 54.25 29.5 C54.25515625 28.7471875 54.2603125 27.994375 54.265625 27.21875 C53.96641611 24.71947573 53.32439047 23.13272535 52 21 C44.12440791 15.40418457 32.00489105 17 23 17 Z M23 59 C23 67.58 23 76.16 23 85 C25.97 85.04125 28.94 85.0825 32 85.125 C33.37865234 85.15231201 33.37865234 85.15231201 34.78515625 85.18017578 C41.4037374 85.22416721 47.41494251 84.87004159 52.9375 80.875 C55.55949497 77.22009792 56.28835057 74.46943379 56 70 C54.80083508 65.93616332 53.93622127 63.72017021 50.5625 61.125 C46.61084405 59.39012666 43.32569348 58.87606284 39.015625 58.90234375 C38.17290039 58.90484131 37.33017578 58.90733887 36.46191406 58.90991211 C35.40198242 58.91901611 34.34205078 58.92812012 33.25 58.9375 C28.17625 58.9684375 28.17625 58.9684375 23 59 Z " fill="#3F5870" transform="translate(267,528)"/>
<path d="M0 0 C7.92 0 15.84 0 24 0 C24 12.54 24 25.08 24 38 C47.265 38.495 47.265 38.495 71 39 C71 26.13 71 13.26 71 0 C78.92 0 86.84 0 95 0 C95.02256642 13.37771949 95.04092406 26.7554264 95.05181217 40.13316059 C95.05703715 46.3445589 95.06412786 52.55594354 95.07543945 58.76733398 C95.08628195 64.75843122 95.09227975 70.74951528 95.09487724 76.74062157 C95.09672902 79.02962641 95.10034493 81.31863052 95.10573006 83.60762978 C95.11295851 86.8065511 95.11399017 90.00541757 95.11352539 93.2043457 C95.11712067 94.15668594 95.12071594 95.10902618 95.12442017 96.09022522 C95.1230455 96.96100708 95.12167084 97.83178894 95.12025452 98.72895813 C95.12117631 99.48575017 95.1220981 100.24254221 95.12304783 101.02226734 C95 103 95 103 94 106 C94.66 106.33 95.32 106.66 96 107 C95.34 107 94.68 107 94 107 C94.33 107.99 94.66 108.98 95 110 C93.515 109.505 93.515 109.505 92 109 C89.21982237 108.1987829 86.78169896 107.88044167 83.890625 107.90234375 C82.75947266 107.90717773 82.75947266 107.90717773 81.60546875 107.91210938 C80.82816406 107.92048828 80.05085938 107.92886719 79.25 107.9375 C78.06083984 107.94426758 78.06083984 107.94426758 76.84765625 107.95117188 C74.89840492 107.96291435 72.94919262 107.98084854 71 108 C69.8239997 105.6479994 69.87915459 104.26265599 69.88647461 101.64208984 C69.88659546 100.7287085 69.88671631 99.81532715 69.88684082 98.87426758 C69.89195679 97.91286865 69.89707275 96.95146973 69.90234375 95.9609375 C69.90335083 95.07833252 69.90435791 94.19572754 69.90539551 93.28637695 C69.91063605 89.98257146 69.92459727 86.67878445 69.9375 83.375 C69.958125 75.99125 69.97875 68.6075 70 61 C54.82 60.67 39.64 60.34 24 60 C24 75.51 24 91.02 24 107 C16.11134235 108.12695109 16.11134235 108.12695109 12.8515625 108.1328125 C11.80935547 108.13474609 11.80935547 108.13474609 10.74609375 108.13671875 C10.04613281 108.13285156 9.34617188 108.12898438 8.625 108.125 C7.54025391 108.13080078 7.54025391 108.13080078 6.43359375 108.13671875 C1.12676222 108.12676222 1.12676222 108.12676222 0 107 C-0.09543095 105.60856311 -0.12188575 104.21231633 -0.12025452 102.81761169 C-0.12162918 101.91592255 -0.12300385 101.0142334 -0.12442017 100.08522034 C-0.12082489 99.08828659 -0.11722961 98.09135284 -0.11352539 97.06420898 C-0.11367142 96.02043091 -0.11381744 94.97665283 -0.1139679 93.90124512 C-0.11326826 90.43284057 -0.10547353 86.96448897 -0.09765625 83.49609375 C-0.09579225 81.09855682 -0.09436826 78.7010195 -0.09336853 76.30348206 C-0.08954194 69.97904416 -0.07971046 63.65462906 -0.06866455 57.3302002 C-0.05845345 50.88224598 -0.05387156 44.43428809 -0.04882812 37.98632812 C-0.03808831 25.3242071 -0.02049038 12.66210901 0 0 Z " fill="#2198B0" transform="translate(176,386)"/>
<path d="M0 0 C0.93545151 0.00395782 1.87090302 0.00791565 2.83470154 0.01199341 C4.33783653 0.0290181 4.33783653 0.0290181 5.87133789 0.04638672 C6.91866592 0.05813934 7.96599396 0.06989197 9.0450592 0.08200073 C11.26332131 0.11070483 13.48154103 0.14286315 15.69970703 0.17822266 C17.94632821 0.2098948 20.19312148 0.23120695 22.43994141 0.24169922 C37.67935698 0.31358855 51.87132069 0.47673664 64.46899414 10.22607422 C65.79350586 11.21994141 65.79350586 11.21994141 67.14477539 12.23388672 C69.15649414 14.10107422 69.15649414 14.10107422 70.15649414 17.10107422 C70.81649414 17.10107422 71.47649414 17.10107422 72.15649414 17.10107422 C81.77942061 30.80504902 85.11910293 45.77243447 82.85620117 62.29345703 C81.26970718 71.10102493 78.46386753 78.80882948 73.15649414 86.10107422 C72.47586914 87.04982422 71.79524414 87.99857422 71.09399414 88.97607422 C68.96165475 91.31476903 66.66947905 93.18326994 64.15649414 95.10107422 C63.49649414 95.76107422 62.83649414 96.42107422 62.15649414 97.10107422 C54.63299805 100.90416016 47.23654365 103.46039055 38.85180664 104.28076172 C37.69813095 104.40075027 37.69813095 104.40075027 36.52114868 104.52316284 C27.53065035 105.37483937 18.55244486 105.32101274 9.53149414 105.22607422 C7.83097871 105.21600238 6.13045735 105.20688412 4.42993164 105.19873047 C0.33862897 105.17883114 -3.75235605 105.14097225 -7.84350586 105.10107422 C-8.6708223 94.27583219 -8.97323836 83.53889339 -8.91867065 72.68541527 C-8.90566038 70.07471789 -8.899332 67.46407247 -8.89453125 64.85334778 C-8.88324629 59.33173265 -8.86393971 53.81016204 -8.84350586 48.28857422 C-8.81984883 41.83813619 -8.79953908 35.38772128 -8.78756714 28.93725014 C-8.78109617 26.36741007 -8.76860264 23.79764448 -8.75585938 21.22782898 C-8.75222932 19.66238469 -8.74887729 18.09693971 -8.74584961 16.53149414 C-8.74068329 15.8193576 -8.73551697 15.10722107 -8.73019409 14.37350464 C-8.72986593 11.32846533 -8.87190517 9.01587628 -9.84350586 6.10107422 C-9.18350586 6.10107422 -8.52350586 6.10107422 -7.84350586 6.10107422 C-7.84350586 5.11107422 -7.84350586 4.12107422 -7.84350586 3.10107422 C-8.50350586 3.10107422 -9.16350586 3.10107422 -9.84350586 3.10107422 C-9.84350586 2.44107422 -9.84350586 1.78107422 -9.84350586 1.10107422 C-6.499019 0.34963827 -3.42538065 -0.02055891 0 0 Z M14.15649414 20.10107422 C14.06239935 22.12601653 14.03906292 24.15427292 14.04296875 26.18139648 C14.04304428 27.48266983 14.04311981 28.78394318 14.04319763 30.12464905 C14.04830505 31.55559324 14.05352106 32.98653704 14.05883789 34.41748047 C14.06070211 35.87336682 14.06212599 37.32925379 14.06312561 38.78514099 C14.06695049 42.62386801 14.0767805 46.46255741 14.08782959 50.30126953 C14.09804437 54.21565237 14.10262337 58.13004127 14.10766602 62.04443359 C14.1184028 69.72999765 14.13547885 77.41553067 14.15649414 85.10107422 C17.61466101 85.18954739 21.07252994 85.24195147 24.53149414 85.28857422 C25.49700195 85.31371094 26.46250977 85.33884766 27.45727539 85.36474609 C36.41437547 85.45491824 44.92754299 84.3035015 51.62524414 77.89013672 C58.65534412 69.67639745 60.49025234 60.68691967 60.03149414 50.10107422 C59.19406213 41.14249923 56.78987089 33.44604329 50.15649414 27.10107422 C43.77293205 22.04286121 21.26796027 12.98960809 14.15649414 20.10107422 Z " fill="#3F576F" transform="translate(577.843505859375,526.89892578125)"/>
<path d="M0 0 C62.19559353 0 62.19559353 0 77.8125 14.25 C88.53080397 25.71370161 91.46250593 40.75608571 91.2109375 55.8984375 C90.7569552 68.02144628 85.94900675 79.84102884 78 89 C66.12042145 99.98861016 52.26451321 103.22285312 36.625 103.625 C35.38943359 103.66222168 34.15386719 103.69944336 32.88085938 103.73779297 C25.7550626 103.93923876 18.62869838 104.09330348 11.5 104.125 C10.42613037 104.13200928 10.42613037 104.13200928 9.33056641 104.13916016 C5.96759891 104.12841585 3.29969753 103.82492438 0 103 C0 69.01 0 35.02 0 0 Z M22 20 C22 20.99 22 21.98 22 23 C21.99502998 24.93888431 21.98968353 26.87776766 21.98413086 28.81665039 C21.96810341 34.74838287 21.95654618 40.68010827 21.94818783 46.61185551 C21.94295444 50.20096614 21.93584222 53.79005327 21.92456055 57.37915039 C21.9137172 60.85148284 21.90772072 64.3237926 21.90512276 67.79614067 C21.90237205 69.76490404 21.89456404 71.73365823 21.88670349 73.70240784 C21.88662796 74.89381882 21.88655243 76.0852298 21.88647461 77.31274414 C21.884254 78.36514786 21.88203339 79.41755157 21.87974548 80.50184631 C21.83150199 82.99941298 21.83150199 82.99941298 23 85 C36.30128182 85.38616625 47.495472 84.60525709 58.75 77.1875 C65.27951889 70.83935664 67.9239868 62.19061566 68.0546875 53.265625 C67.76549931 44.81861559 66.78961246 38.21292828 62 31 C61.401875 30.071875 60.80375 29.14375 60.1875 28.1875 C52.82553581 20.82553581 44.42491737 18.72970151 34.3125 18.25 C33.45849609 18.19457031 32.60449219 18.13914062 31.72460938 18.08203125 C30.90412109 18.03949219 30.08363281 17.99695313 29.23828125 17.953125 C28.49618408 17.91348633 27.75408691 17.87384766 26.98950195 17.83300781 C24.678045 17.86568661 24.678045 17.86568661 22 20 Z " fill="#405972" transform="translate(464,528)"/>
<path d="M0 0 C0.73154297 0.05220703 1.46308594 0.10441406 2.21679688 0.15820312 C3.99918622 0.28634876 5.7809257 0.4234816 7.5625 0.5625 C7.60913719 9.07368179 7.64452687 17.58480889 7.66612434 26.09608746 C7.67649756 30.04953764 7.6905364 34.00289947 7.71337891 37.95629883 C7.73534069 41.78184166 7.74711701 45.6073003 7.75225449 49.43290138 C7.75590887 50.88190852 7.76304288 52.33091181 7.77396011 53.77988243 C7.87916389 68.34119087 7.70405085 82.91382856 -2.5 94.3125 C-12.71689595 103.72807078 -25.21482018 106.02686661 -38.5859375 105.8125 C-51.06128782 105.00274095 -62.85693993 101.00111608 -71.4375 91.5625 C-88.16076431 67.93180044 -80.64654046 27.5716002 -79.4375 0.5625 C-71.8475 0.5625 -64.2575 0.5625 -56.4375 0.5625 C-56.4281543 2.64111328 -56.41880859 4.71972656 -56.40917969 6.86132812 C-56.37532122 13.75059786 -56.31972335 20.63957085 -56.25359726 27.5286026 C-56.21418922 31.70300301 -56.18196829 35.87719459 -56.16650391 40.05175781 C-56.15129296 44.08502938 -56.11676989 48.11772657 -56.06919098 52.15074158 C-56.05442266 53.68475841 -56.04646161 55.21885726 -56.04561615 56.75294495 C-56.0880067 68.26155865 -56.0880067 68.26155865 -51.4375 78.5625 C-44.50727432 84.07839391 -38.0302419 84.28364028 -29.4375 83.5625 C-24.66553097 82.25357433 -22.07792653 80.36713847 -19 76.5 C-16.62376488 72.03267797 -16.29516289 68.80796164 -16.23217773 63.79614258 C-16.22227814 63.11295456 -16.21237854 62.42976654 -16.20217896 61.72587585 C-16.17061321 59.46962947 -16.1458261 57.21336203 -16.12109375 54.95703125 C-16.10051996 53.39189611 -16.07952338 51.82676648 -16.05812073 50.26164246 C-16.00294391 46.14352884 -15.95351529 42.02536544 -15.90527344 37.90716553 C-15.85502635 33.70434136 -15.79935703 29.50158942 -15.74414062 25.29882812 C-15.63661274 17.0534465 -15.53515587 8.80800442 -15.4375 0.5625 C-10.14096121 -0.37709624 -5.35081483 -0.42591115 0 0 Z " fill="#3A5167" transform="translate(438.4375,527.4375)"/>
<path d="M0 0 C7.32258032 5.90530671 12.59118591 14.22583942 14.55859375 23.47265625 C15.11212949 29.46929341 14.93359375 35.51302548 14.93359375 41.53515625 C-2.88640625 41.86515625 -20.70640625 42.19515625 -39.06640625 42.53515625 C-39.39640625 43.19515625 -39.72640625 43.85515625 -40.06640625 44.53515625 C-40.39640625 43.54515625 -40.72640625 42.55515625 -41.06640625 41.53515625 C-41.72640625 41.53515625 -42.38640625 41.53515625 -43.06640625 41.53515625 C-41.57063383 48.77717998 -41.57063383 48.77717998 -37.25390625 54.53515625 C-31.19170702 58.3388891 -25.77549476 59.59625021 -18.69140625 58 C-14.00307679 56.84632141 -14.00307679 56.84632141 -10.8671875 53.48828125 C-10.60292969 52.84375 -10.33867188 52.19921875 -10.06640625 51.53515625 C-9.06640625 50.53515625 -9.06640625 50.53515625 -6.84155273 50.42163086 C-5.88321533 50.42686768 -4.92487793 50.43210449 -3.9375 50.4375 C-2.90302734 50.44072266 -1.86855469 50.44394531 -0.80273438 50.44726562 C0.28587891 50.45564453 1.37449219 50.46402344 2.49609375 50.47265625 C4.13481445 50.47942383 4.13481445 50.47942383 5.80664062 50.48632812 C8.5156787 50.49815799 11.22460974 50.51464082 13.93359375 50.53515625 C10.97381828 60.16992275 6.55891358 67.85794378 -2.06640625 73.53515625 C-7.95236586 76.34354857 -13.69144506 78.68288302 -20.25390625 78.59765625 C-21.60548828 78.58412109 -21.60548828 78.58412109 -22.984375 78.5703125 C-23.67144531 78.55871094 -24.35851562 78.54710937 -25.06640625 78.53515625 C-25.39640625 79.19515625 -25.72640625 79.85515625 -26.06640625 80.53515625 C-26.06640625 79.87515625 -26.06640625 79.21515625 -26.06640625 78.53515625 C-27.73703125 78.62796875 -27.73703125 78.62796875 -29.44140625 78.72265625 C-39.64026484 78.66869404 -47.77113586 74.2664899 -55.23046875 67.6015625 C-63.28694936 59.37912443 -66.67005116 49.17532898 -67.13671875 37.796875 C-66.83071439 23.60167274 -63.30889003 12.37167691 -53.21875 2.25 C-38.94243691 -10.8701169 -15.44205393 -10.94663559 0 0 Z M-38.06640625 16.53515625 C-39.98989692 19.07637368 -41.79158191 21.604963 -43.06640625 24.53515625 C-42.73640625 25.19515625 -42.40640625 25.85515625 -42.06640625 26.53515625 C-30.84640625 26.53515625 -19.62640625 26.53515625 -8.06640625 26.53515625 C-9.09359545 20.37202106 -9.82074444 18.78081806 -14.06640625 14.53515625 C-21.42668565 10.81067752 -32.03720027 10.50595027 -38.06640625 16.53515625 Z " fill="#2294AB" transform="translate(825.06640625,418.46484375)"/>
<path d="M0 0 C9.73025456 7.65126121 15.42374198 17.96943063 17.0625 30.25 C18.09450036 42.25379361 15.5097961 53.64566465 8.0625 63.25 C0.82621857 71.32470976 -8.90471811 77.53637347 -19.97705078 78.41113281 C-35.50885751 78.71367763 -47.44340505 77.44944564 -59.6875 66.875 C-60.43 66.00875 -61.1725 65.1425 -61.9375 64.25 C-62.69160156 63.37214844 -62.69160156 63.37214844 -63.4609375 62.4765625 C-71.03580494 53.12806756 -72.74963759 42.04103471 -71.9375 30.25 C-70.25978906 18.42071609 -65.68813532 7.62155239 -55.9375 0.25 C-38.51943308 -10.15279032 -17.2989574 -11.82755095 0 0 Z M-44.3125 20.0625 C-48.5682922 26.33054177 -49.74731205 32.79972909 -48.9375 40.25 C-47.57704383 46.3472269 -45.60249738 51.79278585 -40.21875 55.40234375 C-33.57596362 59.10596076 -27.22566426 60.04223833 -19.8125 58.3125 C-14.26908544 56.42152214 -11.05329104 53.12807518 -7.9375 48.25 C-4.9794167 41.43354719 -4.74148519 33.00678824 -7.125 25.9375 C-9.78670984 19.96696738 -12.72663297 16.51811313 -18.6875 13.875 C-28.6452044 10.35877797 -37.49161129 11.55703345 -44.3125 20.0625 Z " fill="#2091A8" transform="translate(352.9375,418.75)"/>
<path d="M0 0 C8.8162221 7.46116709 13.83823298 16.32639326 16.05859375 27.7421875 C17.06420701 41.6660634 14.51604451 53.99144009 5.32421875 64.77734375 C-3.07310175 73.52764897 -13.76071668 78.12012415 -25.890625 78.83984375 C-39.78870182 78.39496293 -51.73343431 74.44002342 -61.96484375 64.859375 C-71.23638391 54.92819958 -72.52529022 43.41212649 -72.28125 30.3671875 C-71.76492854 19.92935294 -66.97075163 11.25947009 -59.94140625 3.7421875 C-59.41933594 3.17886719 -58.89726563 2.61554688 -58.359375 2.03515625 C-43.34960334 -12.3902934 -16.20038365 -11.94964078 0 0 Z M-45.3515625 19.59375 C-49.8258255 27.13103892 -50.36249348 36.03347708 -48.2578125 44.48828125 C-45.90448546 50.27883285 -42.59384108 53.97799256 -36.87109375 56.7421875 C-30.60153656 59.18884396 -25.0287199 59.45812278 -18.7734375 56.83203125 C-13.06023738 53.66994113 -9.27940175 49.04778841 -7.33203125 42.78125 C-5.77361326 34.6463081 -7.03505178 27.03939513 -10.94140625 19.7421875 C-15.15655655 14.6288938 -19.89583215 12.25971804 -26.4453125 11.421875 C-34.40634403 10.91254614 -40.4148524 13.11175391 -45.3515625 19.59375 Z " fill="#2194AC" transform="translate(644.94140625,419.2578125)"/>
<path d="M0 0 C0 1.98 0 3.96 0 6 C0.66 6 1.32 6 2 6 C2.66 5.01 3.32 4.02 4 3 C14.08026735 -2.41375932 24.24750547 -3.68354601 35.3125 -0.875 C43.39437236 1.95890329 48.22199705 6.35775015 52.08984375 13.94921875 C54.37476492 19.09764627 54.35017283 23.88516639 54.5625 29.4375 C54.6049585 30.50540771 54.64741699 31.57331543 54.69116211 32.67358398 C55.2417615 48.44155398 55.08608561 64.2251432 55 80 C52.14839609 80.81434143 49.63373869 81.11881242 46.671875 81.09765625 C45.87265625 81.09443359 45.0734375 81.09121094 44.25 81.08789062 C43.0125 81.07532227 43.0125 81.07532227 41.75 81.0625 C40.90953125 81.05798828 40.0690625 81.05347656 39.203125 81.04882812 C37.13538599 81.03707961 35.06768376 81.01914522 33 81 C30.76722445 75.63158091 30.78347223 70.95229522 30.91015625 65.25390625 C30.93057604 63.34570565 30.9507508 61.43750242 30.97070312 59.52929688 C31.01417119 56.54277067 31.06260952 53.55642565 31.11645508 50.57006836 C31.16491826 47.67302072 31.19466347 44.77621361 31.22265625 41.87890625 C31.24441422 40.99328506 31.26617218 40.10766388 31.28858948 39.19520569 C31.34114003 32.5811626 30.44973347 27.65971062 25.8125 22.625 C20.79269548 19.7246685 16.6688373 19.61698816 11.1875 20.875 C10.135625 21.24625 9.08375 21.6175 8 22 C7.01 22.33 6.02 22.66 5 23 C-0.06995435 32.24521088 0.7156821 43.77571892 0.79418945 53.97045898 C0.81263968 56.45632011 0.8146973 58.94181135 0.81445312 61.42773438 C0.81936263 63.01302406 0.82518845 64.59831123 0.83203125 66.18359375 C0.83314407 66.9241954 0.8342569 67.66479706 0.83540344 68.42784119 C0.86435486 71.5510529 1.00486751 74.01460252 2 77 C1.34 77 0.68 77 0 77 C0.33 77.99 0.66 78.98 1 80 C-5.75105368 81.12517561 -12.26614928 81.68346268 -19 80 C-19.495 80.99 -19.495 80.99 -20 82 C-21.47772217 80.96008301 -21.47772217 80.96008301 -23 79 C-23.28561344 76.46339591 -23.38960954 74.17421275 -23.35644531 71.63867188 C-23.35951187 70.51870567 -23.35951187 70.51870567 -23.36264038 69.37611389 C-23.36564978 66.90674389 -23.34716645 64.43804071 -23.328125 61.96875 C-23.32506741 60.25386724 -23.32319129 58.538982 -23.32244873 56.82409668 C-23.31784461 53.22947693 -23.30341496 49.63508108 -23.28125 46.04052734 C-23.2529676 41.43019147 -23.24203852 36.820032 -23.2375679 32.20961761 C-23.23341297 28.66833731 -23.22359486 25.12709275 -23.21169281 21.58583069 C-23.20599091 19.88575018 -23.20123194 18.18566625 -23.19742584 16.48558044 C-23.19055876 14.11076819 -23.17692413 11.73609572 -23.16113281 9.36132812 C-23.16001495 8.65682022 -23.15889709 7.95231232 -23.15774536 7.22645569 C-23.1311195 4.2063929 -22.96337585 1.89012755 -22 -1 C-19.27132267 -1.22262638 -16.54308042 -1.42852324 -13.8125 -1.625 C-13.04357422 -1.68945312 -12.27464844 -1.75390625 -11.48242188 -1.8203125 C-7.11875319 -2.11996357 -3.98914662 -2.09450183 0 0 Z " fill="#2297B0" transform="translate(693,413)"/>
<path d="M0 0 C8.91 0 17.82 0 27 0 C33.33333333 12.66666667 39.66666667 25.33333333 46 38 C52.92658642 25.45163503 59.68689739 12.86901686 66 0 C74.91 0 83.82 0 93 0 C89.2014241 7.5971518 85.42790674 14.88902849 81.0625 22.125 C79.93243638 24.01884112 78.80358541 25.91340622 77.67578125 27.80859375 C77.08490723 28.80101074 76.4940332 29.79342773 75.88525391 30.81591797 C72.81242146 36.00574971 69.78061716 41.2190696 66.76119995 46.44012451 C65.76361545 48.16397221 64.76281084 49.88595513 63.76196289 51.60791016 C63.15473389 52.65897949 62.54750488 53.71004883 61.921875 54.79296875 C61.38143555 55.7264917 60.84099609 56.66001465 60.28417969 57.62182617 C57.78554908 62.24904305 57.86954946 66.37679534 57.90234375 71.5 C57.90446617 72.74813477 57.90446617 72.74813477 57.90663147 74.02148438 C57.91222726 76.68102617 57.9247693 79.34048371 57.9375 82 C57.9425164 83.79166544 57.94707907 85.58333221 57.95117188 87.375 C57.95934504 90.6562672 57.97002625 93.93750294 57.98413086 97.21875 C57.99361731 99.47915295 58 101.73957714 58 104 C50.08 104 42.16 104 34 104 C34.09023438 101.1021875 34.18046875 98.204375 34.2734375 95.21875 C34.70609147 73.26248517 34.6529668 57.05224834 21.10253906 38.99804688 C17.38731003 33.70043744 14.42373795 27.97883602 11.37039185 22.28244019 C9.70072261 19.17328631 7.99993877 16.08138261 6.30078125 12.98828125 C5.73528564 11.95227783 5.16979004 10.91627441 4.5871582 9.84887695 C3.53347194 7.95755793 2.43538693 6.09026932 1.29370117 4.25073242 C0 2 0 2 0 0 Z " fill="#415A73" transform="translate(660,528)"/>
<path d="M0 0 C6.93 0.33 13.86 0.66 21 1 C21.33 3.97 21.66 6.94 22 10 C22.99 8.906875 23.98 7.81375 25 6.6875 C30.70809485 1.05915897 35.55577175 -0.15015933 43.5 -0.1875 C45.33377912 -0.1398399 47.16745615 -0.08246447 49 0 C49.97299156 4.85729645 50.12038805 9.4500625 50.0625 14.375 C50.05798828 15.11105469 50.05347656 15.84710938 50.04882812 16.60546875 C50.03715142 18.40368158 50.01922011 20.20185197 50 22 C47.20003705 22.93332098 45.10252733 23.18693372 42.1875 23.375 C37.85413114 23.76089124 34.80588089 24.81161849 31 27 C30.34 27 29.68 27 29 27 C28.731875 27.53625 28.46375 28.0725 28.1875 28.625 C27.28746142 30.42507716 26.36716493 32.21504333 25.4375 34 C23.60181474 37.83099532 22.88600893 40.99044367 22.79467773 45.21777344 C22.77473251 46.03832214 22.75478729 46.85887085 22.73423767 47.70428467 C22.71752518 48.58046448 22.70081268 49.45664429 22.68359375 50.359375 C22.66281265 51.26375305 22.64203156 52.1681311 22.62062073 53.09991455 C22.5553406 55.98320055 22.49634048 58.8665761 22.4375 61.75 C22.39429429 63.70704044 22.35067935 65.66407188 22.30664062 67.62109375 C22.19968128 72.4139712 22.09835327 77.20693854 22 82 C15.48214286 83.20535714 15.48214286 83.20535714 12 82 C11.505 82.99 11.505 82.99 11 84 C10.67 83.67 10.34 83.34 10 83 C8.14712498 82.92773498 6.29166122 82.9161878 4.4375 82.9375 C3.42558594 82.94652344 2.41367187 82.95554687 1.37109375 82.96484375 C0.58863281 82.97644531 -0.19382812 82.98804688 -1 83 C-1.85803626 78.54430808 -2.13144255 74.32358823 -2.14526367 69.78881836 C-2.14862228 69.09371658 -2.1519809 68.39861481 -2.15544128 67.68244934 C-2.16488374 65.40156228 -2.16689064 63.12074909 -2.16796875 60.83984375 C-2.17118472 59.24613922 -2.17454905 57.65243499 -2.17805481 56.05873108 C-2.18402836 52.72591466 -2.18589641 49.39312412 -2.18530273 46.06030273 C-2.18520092 41.79436239 -2.19888095 37.52858775 -2.21607494 33.26268673 C-2.22720048 29.97440328 -2.22922181 26.68615992 -2.22869301 23.39785957 C-2.22987121 21.82502226 -2.23428405 20.25218386 -2.24202538 18.67936516 C-2.25184164 16.48005433 -2.24894151 14.28110395 -2.24291992 12.08178711 C-2.24434494 10.83191513 -2.24576996 9.58204315 -2.24723816 8.29429626 C-2 5 -2 5 0 0 Z " fill="#2299B2" transform="translate(381,411)"/>
<path d="M0 0 C7.92 0 15.84 0 24 0 C24 12.54 24 25.08 24 38 C47.265 38.495 47.265 38.495 71 39 C71 26.13 71 13.26 71 0 C78.92 0 86.84 0 95 0 C95.02256642 13.37771949 95.04092406 26.7554264 95.05181217 40.13316059 C95.05703715 46.3445589 95.06412786 52.55594354 95.07543945 58.76733398 C95.08628195 64.75843122 95.09227975 70.74951528 95.09487724 76.74062157 C95.09672902 79.02962641 95.10034493 81.31863052 95.10573006 83.60762978 C95.11295851 86.8065511 95.11399017 90.00541757 95.11352539 93.2043457 C95.11712067 94.15668594 95.12071594 95.10902618 95.12442017 96.09022522 C95.1230455 96.96100708 95.12167084 97.83178894 95.12025452 98.72895813 C95.12117631 99.48575017 95.1220981 100.24254221 95.12304783 101.02226734 C95 103 95 103 94 106 C94.66 106.33 95.32 106.66 96 107 C95.34 107 94.68 107 94 107 C94.33 107.99 94.66 108.98 95 110 C93.515 109.505 93.515 109.505 92 109 C89.21982237 108.1987829 86.78169896 107.88044167 83.890625 107.90234375 C82.75947266 107.90717773 82.75947266 107.90717773 81.60546875 107.91210938 C80.82816406 107.92048828 80.05085938 107.92886719 79.25 107.9375 C78.06083984 107.94426758 78.06083984 107.94426758 76.84765625 107.95117188 C74.89840492 107.96291435 72.94919262 107.98084854 71 108 C69.8239997 105.6479994 69.87915459 104.26265599 69.88647461 101.64208984 C69.88659546 100.7287085 69.88671631 99.81532715 69.88684082 98.87426758 C69.89195679 97.91286865 69.89707275 96.95146973 69.90234375 95.9609375 C69.90335083 95.07833252 69.90435791 94.19572754 69.90539551 93.28637695 C69.91063605 89.98257146 69.92459727 86.67878445 69.9375 83.375 C69.958125 75.99125 69.97875 68.6075 70 61 C54.82 60.67 39.64 60.34 24 60 C24 75.51 24 91.02 24 107 C16.11134235 108.12695109 16.11134235 108.12695109 12.8515625 108.1328125 C11.80935547 108.13474609 11.80935547 108.13474609 10.74609375 108.13671875 C10.04613281 108.13285156 9.34617188 108.12898438 8.625 108.125 C7.54025391 108.13080078 7.54025391 108.13080078 6.43359375 108.13671875 C1.12676222 108.12676222 1.12676222 108.12676222 0 107 C-0.09543095 105.60856311 -0.12188575 104.21231633 -0.12025452 102.81761169 C-0.12162918 101.91592255 -0.12300385 101.0142334 -0.12442017 100.08522034 C-0.12082489 99.08828659 -0.11722961 98.09135284 -0.11352539 97.06420898 C-0.11367142 96.02043091 -0.11381744 94.97665283 -0.1139679 93.90124512 C-0.11326826 90.43284057 -0.10547353 86.96448897 -0.09765625 83.49609375 C-0.09579225 81.09855682 -0.09436826 78.7010195 -0.09336853 76.30348206 C-0.08954194 69.97904416 -0.07971046 63.65462906 -0.06866455 57.3302002 C-0.05845345 50.88224598 -0.05387156 44.43428809 -0.04882812 37.98632812 C-0.03808831 25.3242071 -0.02049038 12.66210901 0 0 Z M2 1 C2 35.65 2 70.3 2 106 C8.6 106 15.2 106 22 106 C22 90.16 22 74.32 22 58 C38.5 58 55 58 72 58 C72 73.84 72 89.68 72 106 C78.6 106 85.2 106 92 106 C92 71.68 92 37.36 92 2 C85.4 2 78.8 2 72 2 C72 14.54 72 27.08 72 40 C55.5 40 39 40 22 40 C22 27.13 22 14.26 22 1 C15.4 1 8.8 1 2 1 Z " fill="#104E5B" transform="translate(176,386)"/>
<path d="M0 0 C8.91 0 17.82 0 27 0 C33.33333333 12.66666667 39.66666667 25.33333333 46 38 C52.92658642 25.45163503 59.68689739 12.86901686 66 0 C74.91 0 83.82 0 93 0 C89.2014241 7.5971518 85.42790674 14.88902849 81.0625 22.125 C79.93243638 24.01884112 78.80358541 25.91340622 77.67578125 27.80859375 C77.08490723 28.80101074 76.4940332 29.79342773 75.88525391 30.81591797 C72.81242146 36.00574971 69.78061716 41.2190696 66.76119995 46.44012451 C65.76361545 48.16397221 64.76281084 49.88595513 63.76196289 51.60791016 C63.15473389 52.65897949 62.54750488 53.71004883 61.921875 54.79296875 C61.38143555 55.7264917 60.84099609 56.66001465 60.28417969 57.62182617 C57.78554908 62.24904305 57.86954946 66.37679534 57.90234375 71.5 C57.90446617 72.74813477 57.90446617 72.74813477 57.90663147 74.02148438 C57.91222726 76.68102617 57.9247693 79.34048371 57.9375 82 C57.9425164 83.79166544 57.94707907 85.58333221 57.95117188 87.375 C57.95934504 90.6562672 57.97002625 93.93750294 57.98413086 97.21875 C57.99361731 99.47915295 58 101.73957714 58 104 C50.08 104 42.16 104 34 104 C34.09023438 101.1021875 34.18046875 98.204375 34.2734375 95.21875 C34.70609147 73.26248517 34.6529668 57.05224834 21.10253906 38.99804688 C17.38731003 33.70043744 14.42373795 27.97883602 11.37039185 22.28244019 C9.70072261 19.17328631 7.99993877 16.08138261 6.30078125 12.98828125 C5.73528564 11.95227783 5.16979004 10.91627441 4.5871582 9.84887695 C3.53347194 7.95755793 2.43538693 6.09026932 1.29370117 4.25073242 C0 2 0 2 0 0 Z M2 1 C9.1524212 15.65564234 17.02167546 29.79920592 25.37451172 43.80249023 C26.16891595 45.13983142 26.94889823 46.48582272 27.71582031 47.83911133 C28.98691733 50.05249852 28.98691733 50.05249852 30.60449219 52.21362305 C36.73611157 61.45391145 35.89335616 71.50880122 35.875 82.1875 C35.89315422 84.11265734 35.91396538 86.03779154 35.9375 87.96289062 C35.99391049 92.64294665 35.99573824 97.31845722 36 102 C42.6 102 49.2 102 56 102 C55.94457031 99.27234375 55.88914062 96.5446875 55.83203125 93.734375 C55.43638209 58.00952654 55.43638209 58.00952654 66.20507812 43.53710938 C68.34259969 40.51573776 70.22065439 37.36910881 72.078125 34.171875 C72.42789902 33.56991302 72.77767303 32.96795105 73.13804626 32.3477478 C73.84688676 31.12557112 74.55509267 29.90302618 75.26266479 28.68011475 C76.91870415 25.83267636 78.60986477 23.00651413 80.30078125 20.1796875 C80.92162598 19.13780273 81.5424707 18.09591797 82.18212891 17.02246094 C83.37877403 15.03287369 84.58908797 13.05143359 85.81396484 11.07910156 C86.36391113 10.18932617 86.91385742 9.29955078 87.48046875 8.3828125 C87.96797607 7.60566895 88.4554834 6.82852539 88.95776367 6.02783203 C90.22856149 3.93529677 90.22856149 3.93529677 90 1 C82.74 1 75.48 1 68 1 C62.00024128 11.69522207 56.13527749 22.42212836 50.58081055 33.35620117 C50.14164307 34.20931885 49.70247559 35.06243652 49.25 35.94140625 C48.86328125 36.70138916 48.4765625 37.46137207 48.078125 38.24438477 C47 40 47 40 45 41 C44.73952881 40.14929932 44.47905762 39.29859863 44.21069336 38.42211914 C42.94293038 34.83868828 41.38207481 31.61775319 39.62890625 28.24609375 C39.30591049 27.6227565 38.98291473 26.99941925 38.65013123 26.35719299 C37.97054459 25.04769157 37.28887582 23.73926879 36.60522461 22.43188477 C35.56485109 20.44199686 34.5309113 18.44887228 33.49804688 16.45507812 C31.68194916 12.96091083 29.86529101 9.46827969 28 6 C27.54254395 5.04851074 27.08508789 4.09702148 26.61376953 3.11669922 C25.17787279 0.76648219 25.17787279 0.76648219 22.5480957 0.43237305 C21.60023193 0.45855713 20.65236816 0.48474121 19.67578125 0.51171875 C18.64775391 0.52783203 17.61972656 0.54394531 16.56054688 0.56054688 C14.95276367 0.62338867 14.95276367 0.62338867 13.3125 0.6875 C12.22904297 0.71005859 11.14558594 0.73261719 10.02929688 0.75585938 C7.35148095 0.8148421 4.67642973 0.89709693 2 1 Z " fill="#15222B" transform="translate(660,528)"/>
<path d="M0 0 C7.52556829 -0.07636215 15.05103582 -0.12873076 22.5769043 -0.16479492 C25.13455947 -0.1798371 27.69218904 -0.20027589 30.24975586 -0.22631836 C33.93609963 -0.26290204 37.62210091 -0.27977268 41.30859375 -0.29296875 C42.44332626 -0.30845261 43.57805878 -0.32393646 44.74717712 -0.33988953 C55.84833043 -0.34221769 63.95007053 2.14365601 72 10 C77.13682291 16.77834208 77.62216871 23.7591993 77 32 C75.14862363 38.42536505 70.74819842 44.92498682 64.77734375 48.23046875 C64.19082031 48.48441406 63.60429687 48.73835937 63 49 C63.87011719 49.47566406 63.87011719 49.47566406 64.7578125 49.9609375 C71.20738967 53.81365522 74.94556037 58.11660211 78 65 C80.35013963 74.53032083 78.69964295 82.58075196 73.8203125 91.046875 C69.05463151 97.41991585 60.70177377 101.43154846 53 103 C51.02741144 103.14721333 49.05108301 103.24723196 47.07421875 103.31640625 C45.89496826 103.35838135 44.71571777 103.40035645 43.50073242 103.44360352 C42.24236572 103.48283936 40.98399902 103.5220752 39.6875 103.5625 C37.76031128 103.62618774 37.76031128 103.62618774 35.79418945 103.69116211 C24.19446842 104.04744796 12.60392375 104.1115267 1 104 C-1.52253589 99.17514837 -1.23176148 94.6405887 -1.13525391 89.34448242 C-1.12106163 87.89498199 -1.12106163 87.89498199 -1.10658264 86.41619873 C-1.07296362 83.22909382 -1.02483181 80.04238264 -0.9765625 76.85546875 C-0.95038935 74.64302086 -0.92512283 72.43056207 -0.90072632 70.21809387 C-0.83413457 64.39993483 -0.7552286 58.5820054 -0.67376709 52.76403809 C-0.59278943 46.82520347 -0.52344512 40.88623431 -0.453125 34.94726562 C-0.31347605 23.29801581 -0.16081901 11.64897544 0 0 Z M2 1 C2 34.33 2 67.66 2 102 C36.95171057 105.25644025 36.95171057 105.25644025 70 93 C75.35408436 87.40970604 76.99571069 81.15224383 77.3125 73.5625 C77.0976178 65.77302032 74.61030854 59.48563502 69 54 C66.41244198 52.18197597 63.7575195 50.54640052 61 49 C61.53109375 48.62488281 62.0621875 48.24976563 62.609375 47.86328125 C67.92104408 44.01522902 72.47958092 40.22691774 75 34 C76.01792443 25.68042536 75.95072814 18.12943102 70.9609375 11.08984375 C64.47654148 4.17918265 58.34390362 2.86878072 49 1 C33.49 1 17.98 1 2 1 Z " fill="#1B2833" transform="translate(267,528)"/>
<path d="M0 0 C6.93 0.33 13.86 0.66 21 1 C21.33 3.97 21.66 6.94 22 10 C22.99 8.906875 23.98 7.81375 25 6.6875 C30.70809485 1.05915897 35.55577175 -0.15015933 43.5 -0.1875 C45.33377912 -0.1398399 47.16745615 -0.08246447 49 0 C49.97299156 4.85729645 50.12038805 9.4500625 50.0625 14.375 C50.05798828 15.11105469 50.05347656 15.84710938 50.04882812 16.60546875 C50.03715142 18.40368158 50.01922011 20.20185197 50 22 C47.20003705 22.93332098 45.10252733 23.18693372 42.1875 23.375 C37.85413114 23.76089124 34.80588089 24.81161849 31 27 C30.34 27 29.68 27 29 27 C28.731875 27.53625 28.46375 28.0725 28.1875 28.625 C27.28746142 30.42507716 26.36716493 32.21504333 25.4375 34 C23.60181474 37.83099532 22.88600893 40.99044367 22.79467773 45.21777344 C22.77473251 46.03832214 22.75478729 46.85887085 22.73423767 47.70428467 C22.71752518 48.58046448 22.70081268 49.45664429 22.68359375 50.359375 C22.66281265 51.26375305 22.64203156 52.1681311 22.62062073 53.09991455 C22.5553406 55.98320055 22.49634048 58.8665761 22.4375 61.75 C22.39429429 63.70704044 22.35067935 65.66407188 22.30664062 67.62109375 C22.19968128 72.4139712 22.09835327 77.20693854 22 82 C15.48214286 83.20535714 15.48214286 83.20535714 12 82 C11.505 82.99 11.505 82.99 11 84 C10.67 83.67 10.34 83.34 10 83 C8.14712498 82.92773498 6.29166122 82.9161878 4.4375 82.9375 C3.42558594 82.94652344 2.41367187 82.95554687 1.37109375 82.96484375 C0.58863281 82.97644531 -0.19382812 82.98804688 -1 83 C-1.85803626 78.54430808 -2.13144255 74.32358823 -2.14526367 69.78881836 C-2.14862228 69.09371658 -2.1519809 68.39861481 -2.15544128 67.68244934 C-2.16488374 65.40156228 -2.16689064 63.12074909 -2.16796875 60.83984375 C-2.17118472 59.24613922 -2.17454905 57.65243499 -2.17805481 56.05873108 C-2.18402836 52.72591466 -2.18589641 49.39312412 -2.18530273 46.06030273 C-2.18520092 41.79436239 -2.19888095 37.52858775 -2.21607494 33.26268673 C-2.22720048 29.97440328 -2.22922181 26.68615992 -2.22869301 23.39785957 C-2.22987121 21.82502226 -2.23428405 20.25218386 -2.24202538 18.67936516 C-2.25184164 16.48005433 -2.24894151 14.28110395 -2.24291992 12.08178711 C-2.24434494 10.83191513 -2.24576996 9.58204315 -2.24723816 8.29429626 C-2 5 -2 5 0 0 Z M24.0625 10.0625 C22.31188156 12.55580505 21.34327487 14.02495114 21 17 C20.34 17 19.68 17 19 17 C19 12.38 19 7.76 19 3 C12.73 3 6.46 3 0 3 C0 28.74 0 54.48 0 81 C6.6 81 13.2 81 20 81 C20.03867187 76.96845703 20.03867187 76.96845703 20.078125 72.85546875 C20.11667064 70.21742825 20.16179016 67.57957502 20.20751953 64.94165039 C20.23553465 63.12533695 20.25684474 61.308906 20.27099609 59.49243164 C20.45077157 37.70963607 20.45077157 37.70963607 26.8671875 28.24609375 C33.4367176 22.32840419 39.26699165 21.67829191 48 21 C48 14.73 48 8.46 48 2 C37.34190795 1.44489104 31.28244093 2.02443546 24.0625 10.0625 Z " fill="#186372" transform="translate(381,411)"/>
<path d="M0 0 C62.19559353 0 62.19559353 0 77.8125 14.25 C88.53080397 25.71370161 91.46250593 40.75608571 91.2109375 55.8984375 C90.7569552 68.02144628 85.94900675 79.84102884 78 89 C69.42246122 96.93422337 58.67648105 102.22454771 47 102 C47 101.67 47 101.34 47 101 C47.9178125 100.75765625 48.835625 100.5153125 49.78125 100.265625 C63.51489276 96.51484021 74.40174271 91.64722228 82.4375 79.125 C89.49978878 65.98074015 90.0599711 49.70588563 86.8125 35.25 C83.38213787 24.01755843 76.5773857 14.60700267 66.6015625 8.31640625 C46.61426933 -1.79728414 22.07247312 1.46827718 1 1 C1 34.33 1 67.66 1 102 C15.52 102 30.04 102 45 102 C45 102.33 45 102.66 45 103 C34.68593479 103.66696034 24.39988684 104.10431488 14.0625 104.125 C13.12196777 104.12951172 12.18143555 104.13402344 11.21240234 104.13867188 C10.32891113 104.13673828 9.44541992 104.13480469 8.53515625 104.1328125 C7.755354 104.13168457 6.97555176 104.13055664 6.17211914 104.12939453 C4 104 4 104 0 103 C0 69.01 0 35.02 0 0 Z " fill="#15212A" transform="translate(464,528)"/>
<path d="M0 0 C5.20425884 4.4495923 10.18356526 8.73480088 11.07421875 15.7734375 C8.67276787 13.50218576 6.77151228 11.06459173 4.82421875 8.3984375 C-1.25801358 0.59648876 -8.15009186 -3.30026754 -17.92578125 -5.2265625 C-30.7387497 -6.51463869 -43.29472489 -5.99397091 -54.23828125 1.4609375 C-62.86093567 8.63154409 -67.09082237 17.12777549 -69.67578125 27.8984375 C-70.83049515 41.17764737 -68.32230129 51.97846412 -60.67578125 63.0234375 C-52.12042166 71.57879709 -42.49228405 75.07904379 -30.47729492 75.29321289 C-16.31546458 75.19751687 -6.59520544 73.39356915 3.9453125 63.2421875 C8.56809847 57.88145221 11.11932572 51.52670434 13.07421875 44.7734375 C13.40421875 44.7734375 13.73421875 44.7734375 14.07421875 44.7734375 C13.74389839 53.69208725 9.70615545 60.28484986 3.57421875 66.6484375 C-5.28853836 74.85754224 -16.78457466 79.16208048 -28.92578125 78.7734375 C-42.90141803 77.18943855 -54.12014304 73.27671005 -63.92578125 62.7734375 C-72.21292238 51.81824118 -73.24472989 39.10786333 -71.92578125 25.7734375 C-69.92748911 17.17092427 -65.9294231 10.19381804 -59.92578125 3.7734375 C-59.40371094 3.21011719 -58.88164063 2.64679688 -58.34375 2.06640625 C-43.29823125 -12.39339888 -16.2703496 -11.84938585 0 0 Z " fill="#165E6C" transform="translate(644.92578125,419.2265625)"/>
<path d="M0 0 C7.26 0 14.52 0 22 0 C22.33 3.96 22.66 7.92 23 12 C22.34 12 21.68 12 21 12 C21 8.7 21 5.4 21 2 C14.73 2 8.46 2 2 2 C2 27.74 2 53.48 2 80 C8.27 80 14.54 80 21 80 C20.9685791 77.93504272 20.9685791 77.93504272 20.93652344 75.82836914 C20.86378015 70.69029257 20.81807556 65.55226097 20.78027344 60.41381836 C20.760236 58.19564137 20.73299827 55.97751668 20.69824219 53.75952148 C20.64937747 50.55960128 20.62695188 47.36038326 20.609375 44.16015625 C20.58872986 43.17854019 20.56808472 42.19692413 20.54681396 41.18556213 C20.54473482 34.71468155 21.596045 29.57532912 25 24 C28.25581448 20.82359563 30.84402814 19.08488078 35.48046875 18.90234375 C36.82044922 18.91974609 36.82044922 18.91974609 38.1875 18.9375 C39.08855469 18.94652344 39.98960937 18.95554687 40.91796875 18.96484375 C41.60503906 18.97644531 42.29210937 18.98804688 43 19 C43 19.33 43 19.66 43 20 C42.26394531 20.10957031 41.52789062 20.21914063 40.76953125 20.33203125 C33.34657486 21.34959101 33.34657486 21.34959101 27 25 C23.38076709 30.4790327 23.63765224 35.40549764 23.77734375 41.7265625 C23.78633194 42.75180023 23.79532013 43.77703796 23.80458069 44.83334351 C23.8345211 48.09757884 23.88432031 51.36106658 23.9375 54.625 C23.9853346 57.89602112 24.02865595 61.16685456 24.05970764 64.43807983 C24.07945873 66.47045187 24.10908034 68.50275735 24.14964294 70.53482056 C24.15947708 71.45612762 24.16931122 72.37743469 24.17944336 73.32666016 C24.1929332 74.13463043 24.20642303 74.94260071 24.22032166 75.77505493 C23.97518742 78.25057283 23.23822683 79.86122547 22 82 C15.56688704 82.09507063 9.34241995 82.15316726 3 81 C3 81.99 3 82.98 3 84 C2.01 83.67 1.02 83.34 0 83 C0 55.33333333 0 27.66666667 0 0 Z " fill="#1A6777" transform="translate(437,412)"/>
<path d="M0 0 C0 0.66 0 1.32 0 2 C0.5775 2.185625 1.155 2.37125 1.75 2.5625 C6.13703592 5.3653285 8.38667943 11.1600383 10 16 C10.75918005 19.94334331 11.14060783 23.71768561 11.20532227 27.72998047 C11.2352401 29.38101273 11.2352401 29.38101273 11.26576233 31.06539917 C11.28247482 32.23748932 11.29918732 33.40957947 11.31640625 34.6171875 C11.33718735 35.82948029 11.35796844 37.04177307 11.37937927 38.290802 C11.44460982 42.1521453 11.50363651 46.01355491 11.5625 49.875 C11.60571041 52.49740261 11.6493255 55.11979859 11.69335938 57.7421875 C11.80026404 64.16138882 11.9020791 70.58065569 12 77 C9.23185668 77.72836047 6.86247038 78.1119736 3.99609375 78.0625 C2.88524414 78.05089844 2.88524414 78.05089844 1.75195312 78.0390625 C0.98818359 78.02617187 0.22441406 78.01328125 -0.5625 78 C-6.35887545 77.82636684 -6.35887545 77.82636684 -12 79 C-12.00586624 78.3766124 -12.01173248 77.75322479 -12.01777649 77.11094666 C-12.08185723 70.60532655 -12.16631486 64.10019441 -12.26245117 57.5949707 C-12.29564466 55.16925502 -12.32369384 52.74346314 -12.34643555 50.31762695 C-12.38008331 46.82470316 -12.43240631 43.33247415 -12.48828125 39.83984375 C-12.49467117 38.76041 -12.5010611 37.68097626 -12.50764465 36.5688324 C-12.63030511 30.24481367 -12.78132801 24.12469616 -17.60546875 19.44140625 C-18.12753906 19.15136719 -18.64960937 18.86132812 -19.1875 18.5625 C-20.115625 18.046875 -21.04375 17.53125 -22 17 C-21.01 16.67 -20.02 16.34 -19 16 C-13.71059364 19.41607494 -11.62328503 22.87038493 -10 29 C-9.61721275 32.69522187 -9.64878984 36.35080807 -9.70703125 40.0625 C-9.71127609 41.09439453 -9.71552094 42.12628906 -9.71989441 43.18945312 C-9.73658199 46.45990967 -9.77421605 49.72973217 -9.8125 53 C-9.82755964 55.22785563 -9.8412458 57.455721 -9.85351562 59.68359375 C-9.88645307 65.12263721 -9.93816676 70.56121139 -10 76 C-3.4 76 3.2 76 10 76 C9.93071049 68.81379697 9.84254507 61.62815301 9.73754883 54.44238281 C9.70447502 52.0023422 9.67638962 49.56222831 9.65356445 47.12207031 C9.61969428 43.59669011 9.56736321 40.071971 9.51171875 36.546875 C9.50532883 35.4713739 9.4989389 34.3958728 9.49235535 33.28778076 C9.3028321 23.32843322 8.17048898 11.59228245 1 4 C-7.94687047 -2.30061301 -17.3392879 -3.16829722 -28 -2 C-34.76126617 -0.0441225 -39.40406458 3.79933623 -44 9 C-45.32 8.34 -46.64 7.68 -48 7 C-48 6.34 -48 5.68 -48 5 C-47.34 5 -46.68 5 -46 5 C-46 5.66 -46 6.32 -46 7 C-45.34773438 6.45730469 -44.69546875 5.91460937 -44.0234375 5.35546875 C-30.16765133 -5.9866571 -16.37081041 -8.55746908 0 0 Z " fill="#155966" transform="translate(553,416)"/>
<path d="M0 0 C28.92 0 28.92 0 39 9 C46.80045087 17.9967385 48.6754433 27.49376025 48.28125 39.12109375 C47.54271781 49.30668348 43.93977763 56.3135443 36.5625 63.3125 C25.05567904 70.89016258 13.94179665 69 0 69 C0 46.23 0 23.46 0 0 Z M1 2 C0.90590521 4.02494231 0.88256878 6.0531987 0.88647461 8.08032227 C0.88655014 9.38159561 0.88662567 10.68286896 0.88670349 12.02357483 C0.89181091 13.45451902 0.89702692 14.88546282 0.90234375 16.31640625 C0.90420797 17.7722926 0.90563185 19.22817957 0.90663147 20.68406677 C0.91045635 24.52279379 0.92028636 28.36148319 0.93133545 32.20019531 C0.94155022 36.11457816 0.94612923 40.02896706 0.95117188 43.94335938 C0.96190866 51.62892343 0.97898471 59.31445645 1 67 C4.45816686 67.08847317 7.91603579 67.14087725 11.375 67.1875 C12.34050781 67.21263672 13.30601562 67.23777344 14.30078125 67.26367188 C23.25788133 67.35384402 31.77104885 66.20242728 38.46875 59.7890625 C45.49884998 51.57532323 47.3337582 42.58584545 46.875 32 C46.03756799 23.04142501 43.63337675 15.34496907 37 9 C30.61643791 3.94178699 8.11146613 -5.11146613 1 2 Z " fill="#0B1117" transform="translate(591,545)"/>
<path d="M0 0 C28.80155109 0 28.80155109 0 38.94140625 8.890625 C41.7978098 11.81749011 43.32590814 14.25003424 45 18 C45.5775 19.11375 46.155 20.2275 46.75 21.375 C49.81739082 30.0041434 49.15417959 42.30008132 46.0390625 50.859375 C42.44385248 58.26604826 37.3343038 63.67503103 29.77734375 66.96875 C20.79726861 69.9667349 11.33852823 69.26128525 2 69 C5.23165793 66.84556138 5.78374301 66.80801277 9.4375 67 C19.97616806 67.184619 29.70163776 65.59191394 37.8125 58.5625 C45.15436773 49.96202637 46.39040129 41.1106242 45.75146484 30.1262207 C45.20201149 23.39889957 43.25996399 17.20639651 38.3359375 12.36328125 C37 11 37 11 37 9 C36.13568359 8.56880859 36.13568359 8.56880859 35.25390625 8.12890625 C33.85526204 7.42837215 32.4651502 6.71015297 31.08984375 5.96484375 C22.51165627 1.87035499 13.32252211 2.19142756 4 2 C1.99024636 5.34246966 1.7645217 7.8437877 1.8046875 11.71484375 C1.81129395 12.86283447 1.81790039 14.0108252 1.82470703 15.19360352 C1.84960205 17.04683228 1.84960205 17.04683228 1.875 18.9375 C1.88257324 20.20972412 1.89014648 21.48194824 1.89794922 22.79272461 C1.92240704 26.8619563 1.95924435 30.93090822 2 35 C2.05362665 40.35414774 2.09312694 45.70816583 2.125 51.0625 C2.14159668 52.29798584 2.15819336 53.53347168 2.17529297 54.80639648 C2.18520264 56.52838257 2.18520264 56.52838257 2.1953125 58.28515625 C2.20578613 59.29457275 2.21625977 60.30398926 2.22705078 61.34399414 C2 64 2 64 0 68 C0 45.56 0 23.12 0 0 Z " fill="#111B22" transform="translate(485,545)"/>
<path d="M0 0 C0.02314093 13.37771647 0.04092406 26.7554282 0.05181217 40.13316059 C0.05703715 46.3445589 0.06412786 52.55594354 0.07543945 58.76733398 C0.08628195 64.75843122 0.09227975 70.74951528 0.09487724 76.74062157 C0.09672902 79.02962641 0.10034493 81.31863052 0.10573006 83.60762978 C0.11295851 86.8065511 0.11399017 90.00541757 0.11352539 93.2043457 C0.11712067 94.15668594 0.12071594 95.10902618 0.12442017 96.09022522 C0.1230455 96.96100708 0.12167084 97.83178894 0.12025452 98.72895813 C0.12117631 99.48575017 0.1220981 100.24254221 0.12304783 101.02226734 C0 103 0 103 -1 106 C-0.34 106.33 0.32 106.66 1 107 C0.34 107 -0.32 107 -1 107 C-0.67 107.99 -0.34 108.98 0 110 C-1.485 109.505 -1.485 109.505 -3 109 C-7.04587369 107.87067087 -11.07295376 107.66258818 -15.25 107.4375 C-15.99507812 107.39431641 -16.74015625 107.35113281 -17.5078125 107.30664062 C-19.338349 107.20103275 -21.16915176 107.10005799 -23 107 C-23 106.67 -23 106.34 -23 106 C-16.4 106 -9.8 106 -3 106 C-3 71.68 -3 37.36 -3 2 C-9.6 2 -16.2 2 -23 2 C-23 1.67 -23 1.34 -23 1 C-19.54170353 0.83256252 -16.08335707 0.66618079 -12.625 0.5 C-11.64015625 0.45230469 -10.6553125 0.40460938 -9.640625 0.35546875 C-8.69960938 0.31035156 -7.75859375 0.26523437 -6.7890625 0.21875 C-5.91975098 0.17685547 -5.05043945 0.13496094 -4.15478516 0.09179688 C-2.77077412 0.03283606 -1.38526637 0 0 0 Z " fill="#126474" transform="translate(271,386)"/>
<path d="M0 0 C0.33 0 0.66 0 1 0 C1 28.05 1 56.1 1 85 C16.51 85 32.02 85 48 85 C48 85.33 48 85.66 48 86 C42.33431663 86.97058832 36.87005197 87.13123058 31.12890625 87.09765625 C29.74541237 87.09553383 29.74541237 87.09553383 28.33396912 87.09336853 C25.41011202 87.08780506 22.48633365 87.07525942 19.5625 87.0625 C17.57096465 87.05748028 15.5794281 87.0529182 13.58789062 87.04882812 C8.72523044 87.03784762 3.86262853 87.02060839 -1 87 C-1 82.71 -1 78.42 -1 74 C-1.66 73.67 -2.32 73.34 -3 73 C-2.34 73 -1.68 73 -1 73 C-1.00222061 72.10019913 -1.00444122 71.20039825 -1.00672913 70.27333069 C-1.02672944 61.81186033 -1.0419728 53.35039786 -1.05181217 44.88890934 C-1.05704065 40.53831541 -1.06413765 36.18774093 -1.07543945 31.8371582 C-1.08626959 27.64209742 -1.0922771 23.44705541 -1.09487724 19.25198174 C-1.09673126 17.64793032 -1.10035144 16.04387997 -1.10573006 14.4398365 C-1.11294219 12.20083485 -1.11399087 9.9619117 -1.11352539 7.72290039 C-1.115746 6.44604874 -1.11796661 5.16919708 -1.12025452 3.85365295 C-1 1 -1 1 0 0 Z " fill="#435C76" transform="translate(572,543)"/>
<path d="M0 0 C5.59588314 -0.28944223 9.18669255 -0.20887163 14 3 C19.40594658 8.40594658 21.0617183 13.49238305 21.22705078 20.92553711 C21.2267375 22.79283593 21.21563982 24.66015554 21.1953125 26.52734375 C21.1924826 27.51626114 21.18965271 28.50517853 21.18673706 29.52406311 C21.17560142 32.66200195 21.15050903 35.79964839 21.125 38.9375 C21.11496165 41.07356357 21.1058373 43.20963164 21.09765625 45.34570312 C21.07568375 50.5639136 21.04119964 55.78190734 21 61 C27.27 61 33.54 61 40 61 C40 42.19 40 23.38 40 4 C40.33 4 40.66 4 41 4 C42.00717083 16.68104149 42.12025465 29.28525991 42.0625 42 C42.05746954 43.95051967 42.0529094 45.90104061 42.04882812 47.8515625 C42.03795747 52.56774052 42.02078019 57.28385566 42 62 C39.12819905 62.7576344 36.64730928 63.11890935 33.671875 63.09765625 C32.87265625 63.09443359 32.0734375 63.09121094 31.25 63.08789062 C30.425 63.07951172 29.6 63.07113281 28.75 63.0625 C27.90953125 63.05798828 27.0690625 63.05347656 26.203125 63.04882812 C24.13538599 63.03707961 22.06768376 63.01914522 20 63 C17.76722445 57.63158091 17.78347223 52.95229522 17.91015625 47.25390625 C17.93057604 45.34570565 17.9507508 43.43750242 17.97070312 41.52929688 C18.01417119 38.54277067 18.06260952 35.55642565 18.11645508 32.57006836 C18.16491826 29.67302072 18.19466347 26.77621361 18.22265625 23.87890625 C18.24441422 22.99328506 18.26617218 22.10766388 18.28858948 21.19520569 C18.34067542 14.63963797 17.4467044 9.74327463 12.9375 4.6875 C8.82369787 2.32425197 4.65558624 1.68703797 0 1 C0 0.67 0 0.34 0 0 Z " fill="#19616F" transform="translate(706,431)"/>
<path d="M0 0 C6.6 0 13.2 0 20 0 C20 12.87 20 25.74 20 39 C22.31 39 24.62 39 27 39 C24 41 24 41 21.375 40.75 C20.59125 40.5025 19.8075 40.255 19 40 C17.41354643 36.82709287 17.87921787 33.41174616 17.90234375 29.9296875 C17.9037587 29.13345978 17.90517365 28.33723206 17.90663147 27.51687622 C17.91223655 24.9695462 17.92478986 22.42230353 17.9375 19.875 C17.94251435 18.14974085 17.94707737 16.42448033 17.95117188 14.69921875 C17.96135747 10.46608496 17.9809318 6.23314046 18 2 C12.39 2 6.78 2 1 2 C1 35.66 1 69.32 1 104 C7.27 104 13.54 104 20 104 C20 104.33 20 104.66 20 105 C13.4 105 6.8 105 0 105 C0 70.35 0 35.7 0 0 Z " fill="#26A6C0" transform="translate(178,387)"/>
<path d="M0 0 C-2.7405062 1.82700413 -3.87189957 2.29836115 -6.9375 2.875 C-10.69700097 3.77865987 -12.70735268 4.73738651 -15 8 C-17.21112132 14.0547387 -17.3410995 19.77986591 -17.4140625 26.18359375 C-17.43342865 27.23909927 -17.4527948 28.2946048 -17.4727478 29.38209534 C-17.53224553 32.7338162 -17.57880965 36.08557197 -17.625 39.4375 C-17.6632072 41.71811345 -17.70226051 43.99871289 -17.7421875 46.27929688 C-17.83792242 51.8527397 -17.92305617 57.42626777 -18 63 C-20.7084017 63.02714434 -23.41652721 63.04690846 -26.125 63.0625 C-26.88554687 63.07087891 -27.64609375 63.07925781 -28.4296875 63.08789062 C-32.7389644 63.10646509 -36.75516474 62.86117265 -41 62 C-40.67 61.01 -40.34 60.02 -40 59 C-40.66 59 -41.32 59 -42 59 C-42 56.03 -42 53.06 -42 50 C-41.67 50 -41.34 50 -41 50 C-40.92561027 44.69811034 -40.87128489 39.39652732 -40.83520508 34.09423828 C-40.8201576 32.29210108 -40.7997147 30.49000027 -40.77368164 28.68798828 C-40.73711979 26.09137979 -40.72023319 23.49525725 -40.70703125 20.8984375 C-40.69154739 20.0982016 -40.67606354 19.2979657 -40.66011047 18.47348022 C-40.65817975 11.99491111 -42.17173111 7.95582254 -46.6875 3.125 C-47.450625 2.42375 -48.21375 1.7225 -49 1 C-44.55955487 2.35680268 -42.54835485 4.13353058 -40 8 C-37.53816391 13.57324757 -37.7428458 18.89364137 -37.8046875 24.8671875 C-37.8075174 25.90191193 -37.81034729 26.93663635 -37.81326294 28.00271606 C-37.82441952 31.29359714 -37.84951603 34.58420178 -37.875 37.875 C-37.88503563 40.11197522 -37.89416047 42.34895473 -37.90234375 44.5859375 C-37.9243441 50.05739748 -37.958843 55.52865194 -38 61 C-31.73 61 -25.46 61 -19 61 C-19.02094727 59.55753906 -19.04189453 58.11507812 -19.06347656 56.62890625 C-19.13612344 51.25417082 -19.18188985 45.87947843 -19.21972656 40.50439453 C-19.23978577 38.18238007 -19.26703991 35.86041577 -19.30175781 33.53857422 C-19.35052541 30.19225655 -19.37302643 26.84660941 -19.390625 23.5 C-19.41127014 22.4694751 -19.43191528 21.4389502 -19.45318604 20.37719727 C-19.45510669 14.14455344 -18.79180724 9.11464942 -15 4 C-10.24597997 -0.06355982 -6.11188079 -0.42890392 0 0 Z " fill="#0F4F5A" transform="translate(530,431)"/>
<path d="M0 0 C6.57937522 -0.12810174 13.1584222 -0.21488903 19.73876953 -0.2746582 C21.97131365 -0.29960733 24.20377775 -0.3335792 26.43603516 -0.37719727 C41.75938717 -0.6688419 55.62265599 -0.69566835 68.3125 9.125 C69.63701172 10.11886719 69.63701172 10.11886719 70.98828125 11.1328125 C73 13 73 13 74 16 C74.66 16 75.32 16 76 16 C85.62292647 29.7039748 88.96260879 44.67136025 86.69970703 61.19238281 C84.76548316 71.93040529 80.57354882 80.33930067 74 89 C73.34 88.67 72.68 88.34 72 88 C72.45890625 87.40574219 72.9178125 86.81148437 73.390625 86.19921875 C81.40714065 75.37018606 84.17818948 65.02680777 84.1875 51.75 C84.19974609 50.84636719 84.21199219 49.94273437 84.22460938 49.01171875 C84.25227159 36.19489052 80.76058918 24.70401991 71.875 15.125 C57.4133304 1.753406 39.28562021 1.52406604 20.75 1.3125 C18.73305154 1.27926785 16.71612347 1.24477291 14.69921875 1.20898438 C9.79959289 1.12476065 4.90000779 1.05763591 0 1 C0 0.67 0 0.34 0 0 Z " fill="#18252E" transform="translate(574,528)"/>
<path d="M0 0 C6.6 0 13.2 0 20 0 C20 22.11 20 44.22 20 67 C19.67 67 19.34 67 19 67 C18.85518291 60.3146658 18.71308779 53.62927745 18.57275391 46.94384766 C18.5248562 44.67658219 18.47636906 42.40932909 18.42724609 40.14208984 C18.15213194 27.42507832 17.93795044 14.7201594 18 2 C12.39 2 6.78 2 1 2 C1 22.13 1 42.26 1 63 C0.67 63 0.34 63 0 63 C0 42.21 0 21.42 0 0 Z " fill="#48627D" transform="translate(360,529)"/>
<path d="M0 0 C0.33 0 0.66 0 1 0 C1 25.08 1 50.16 1 76 C7.6 76 14.2 76 21 76 C20.94779297 71.15828125 20.94779297 71.15828125 20.89453125 66.21875 C20.87110015 63.07455326 20.85290378 59.93036644 20.83520508 56.78613281 C20.82016701 54.60965585 20.79973127 52.43320895 20.77368164 50.25683594 C20.7370791 47.11906492 20.72022339 43.9816964 20.70703125 40.84375 C20.69154739 39.87884644 20.67606354 38.91394287 20.66011047 37.9197998 C20.65863295 31.91854886 21.37001525 27.43153206 24 22 C24.99 21.34 25.98 20.68 27 20 C26.71125 20.61875 26.4225 21.2375 26.125 21.875 C22.67965666 31.44539816 22.7168589 40.92853374 22.79418945 50.97045898 C22.81263968 53.45632011 22.8146973 55.94181135 22.81445312 58.42773438 C22.81936263 60.01302406 22.82518845 61.59831123 22.83203125 63.18359375 C22.83314407 63.9241954 22.8342569 64.66479706 22.83540344 65.42784119 C22.86435486 68.5510529 23.00486751 71.01460252 24 74 C23.34 74 22.68 74 22 74 C22.33 74.99 22.66 75.98 23 77 C16.24894632 78.12517561 9.73385072 78.68346268 3 77 C2.505 77.99 2.505 77.99 2 79 C0.51554871 77.95732117 0.51554871 77.95732117 -1 76 C-1.25131865 73.47278333 -1.32131934 71.20407671 -1.2487793 68.68286133 C-1.23946381 67.94115189 -1.23014832 67.19944244 -1.22055054 66.43525696 C-1.18617591 63.98371737 -1.13028431 61.53316281 -1.07421875 59.08203125 C-1.04618637 57.3824015 -1.01949588 55.68274912 -0.99409485 53.983078 C-0.92362655 49.50950047 -0.83491056 45.0364629 -0.74243164 40.56329346 C-0.65128077 35.99876173 -0.57733412 31.43395519 -0.50195312 26.86914062 C-0.35150287 17.91240673 -0.1817798 8.95614898 0 0 Z " fill="#0B3E48" transform="translate(671,416)"/>
<path d="M0 0 C1.7421875 1.57421875 1.7421875 1.57421875 3 3 C1.2984375 2.505 1.2984375 2.505 -0.4375 2 C-13.08252045 -0.78110418 -26.61809911 -0.14293201 -37.75 6.75 C-46.47105151 13.04512521 -50.90927868 20.96584451 -53.62109375 31.38671875 C-55.25608329 42.66308989 -54.36749491 53.26501018 -49.25 63.5 C-48.63125 64.7375 -48.63125 64.7375 -48 66 C-48.495 66.99 -48.495 66.99 -49 68 C-56.62285269 57.74857742 -57.96122531 45.81042665 -56.3125 33.3125 C-54.11251571 21.55104552 -49.41093279 12.58301261 -40 5 C-28.7368169 -2.27461121 -12.76455653 -5.16660622 0 0 Z " fill="#175E6B" transform="translate(815,413)"/>
<path d="M0 0 C0.33 0.66 0.66 1.32 1 2 C5.29 2 9.58 2 14 2 C14 24.11 14 46.22 14 69 C13.67 69 13.34 69 13 69 C13 47.55 13 26.1 13 4 C7.39 4 1.78 4 -4 4 C-4 26.11 -4 48.22 -4 71 C-4.33 71 -4.66 71 -5 71 C-5 48.23 -5 25.46 -5 2 C-3.35 2 -1.7 2 0 2 C0 1.34 0 0.68 0 0 Z " fill="#4C6783" transform="translate(430,527)"/>
<path d="M0 0 C3.85390817 -0.11693501 7.70735512 -0.1874962 11.5625 -0.25 C12.64853516 -0.28351562 13.73457031 -0.31703125 14.85351562 -0.3515625 C21.50740375 -0.43246084 25.61425195 -0.01711702 31 4 C34.21334048 7.62796506 34.52312153 11.09847541 34.3515625 15.78515625 C33.7941663 19.29675233 32.32226546 21.36391488 30 24 C25.77651273 26.98734465 22.2851227 28.12605751 17.1484375 28.1328125 C16.21515625 28.13410156 15.281875 28.13539063 14.3203125 28.13671875 C13.34835937 28.13285156 12.37640625 28.12898437 11.375 28.125 C10.3953125 28.12886719 9.415625 28.13273438 8.40625 28.13671875 C7.47554688 28.13542969 6.54484375 28.13414062 5.5859375 28.1328125 C4.30275635 28.13112061 4.30275635 28.13112061 2.99365234 28.12939453 C1 28 1 28 0 27 C-0.08758003 25.00035018 -0.10696576 22.9976389 -0.09765625 20.99609375 C-0.09443359 19.78115234 -0.09121094 18.56621094 -0.08789062 17.31445312 C-0.07951172 16.03505859 -0.07113281 14.75566406 -0.0625 13.4375 C-0.05798828 12.15423828 -0.05347656 10.87097656 -0.04882812 9.54882812 C-0.03699545 6.36583978 -0.02051068 3.18294238 0 0 Z M1 1 C1 9.25 1 17.5 1 26 C4.485625 26.0825 7.97125 26.165 11.5625 26.25 C12.64732666 26.28641602 13.73215332 26.32283203 14.84985352 26.36035156 C21.12392429 26.43191672 24.96990554 25.86203226 30 22 C32.0146188 19.21052781 32.27328529 16.89965231 32.25 13.5 C32.25515625 12.7471875 32.2603125 11.994375 32.265625 11.21875 C31.96641611 8.71947573 31.32439047 7.13272535 30 5 C22.12440791 -0.59581543 10.00489105 1 1 1 Z " fill="#1C2833" transform="translate(289,544)"/>
<path d="M0 0 C0.90105469 0.00902344 1.80210937 0.01804687 2.73046875 0.02734375 C3.41753906 0.03894531 4.10460937 0.05054688 4.8125 0.0625 C4.8125 0.3925 4.8125 0.7225 4.8125 1.0625 C3.70841797 1.22685547 3.70841797 1.22685547 2.58203125 1.39453125 C-4.84092514 2.41209101 -4.84092514 2.41209101 -11.1875 6.0625 C-14.80673291 11.5415327 -14.54984776 16.46799764 -14.41015625 22.7890625 C-14.40116806 23.81430023 -14.39217987 24.83953796 -14.38291931 25.89584351 C-14.3529789 29.16007884 -14.30317969 32.42356658 -14.25 35.6875 C-14.2021654 38.95852112 -14.15884405 42.22935456 -14.12779236 45.50057983 C-14.10804127 47.53295187 -14.07841966 49.56525735 -14.03785706 51.59732056 C-14.02802292 52.51862762 -14.01818878 53.43993469 -14.00805664 54.38916016 C-13.9945668 55.19713043 -13.98107697 56.00510071 -13.96717834 56.83755493 C-14.1875 59.0625 -14.1875 59.0625 -16.1875 63.0625 C-19.8175 62.7325 -23.4475 62.4025 -27.1875 62.0625 C-27.1875 61.7325 -27.1875 61.4025 -27.1875 61.0625 C-23.8875 61.0625 -20.5875 61.0625 -17.1875 61.0625 C-17.20844727 59.68586182 -17.22939453 58.30922363 -17.25097656 56.89086914 C-17.32371985 51.75279257 -17.36942444 46.61476097 -17.40722656 41.47631836 C-17.427264 39.25814137 -17.45450173 37.04001668 -17.48925781 34.82202148 C-17.53812253 31.62210128 -17.56054812 28.42288326 -17.578125 25.22265625 C-17.59877014 24.24104019 -17.61941528 23.25942413 -17.64068604 22.24806213 C-17.64276518 15.77718155 -16.591455 10.63782912 -13.1875 5.0625 C-8.99682568 0.97403725 -5.75828331 -0.0747829 0 0 Z " fill="#17606E" transform="translate(475.1875,430.9375)"/>
<path d="M0 0 C0.66 0 1.32 0 2 0 C2.14695312 0.59167969 2.29390625 1.18335938 2.4453125 1.79296875 C4.13839474 7.75767802 5.76466041 10.61242733 11 14 C17.99110405 17.12368479 24.00394329 16.23974218 31.08203125 14.046875 C33.48193077 12.73695021 33.98079913 11.48585578 35 9 C36 8 36 8 38.22485352 7.88647461 C39.18319092 7.89171143 40.14152832 7.89694824 41.12890625 7.90234375 C42.68061523 7.90717773 42.68061523 7.90717773 44.26367188 7.91210938 C45.35228516 7.92048828 46.44089844 7.92886719 47.5625 7.9375 C49.2012207 7.94426758 49.2012207 7.94426758 50.87304688 7.95117188 C53.58208495 7.96300174 56.29101599 7.97948457 59 8 C57.07836382 14.24594394 55.05559882 18.84829339 51 24 C51 19.07049952 53.74984948 15.33153975 56 11 C49.4 10.67 42.8 10.34 36 10 C35.34 11.32 34.68 12.64 34 14 C28.93904952 18.20448193 23.11400556 18.56771128 16.765625 18.3125 C10.42977856 17.59658515 7.10535513 14.54761344 3.2578125 9.7734375 C0.94513068 6.51269978 0 3.98008196 0 0 Z " fill="#14515F" transform="translate(780,461)"/>
<path d="M0 0 C0.4846875 0.37511719 0.969375 0.75023437 1.46875 1.13671875 C4.93028299 3.77946605 8.41950238 6.36173346 12.0625 8.75 C12.94615234 9.33007812 12.94615234 9.33007812 13.84765625 9.921875 C20.36374143 13.18583055 26.6507518 13.3652362 33.8125 13.375 C34.74642578 13.39949219 35.68035156 13.42398437 36.64257812 13.44921875 C45.20542647 13.48487253 52.25595427 11.36490901 59 6 C59.66 6.33 60.32 6.66 61 7 C54.9478125 12.64870833 46.0688238 16.16972498 37.8125 16.0625 C36.91144531 16.05347656 36.01039063 16.04445313 35.08203125 16.03515625 C34.39496094 16.02355469 33.70789063 16.01195312 33 16 C32.67 16.66 32.34 17.32 32 18 C32 17.34 32 16.68 32 16 C30.88625 16.061875 29.7725 16.12375 28.625 16.1875 C18.14723926 16.13206211 9.41358558 11.34808125 1.9375 4.25 C0 2 0 2 0 0 Z " fill="#1B606E" transform="translate(767,481)"/>
<path d="M0 0 C6.27 0 12.54 0 19 0 C15 2 15 2 2 2 C2 17.51 2 33.02 2 49 C-1.465 49.495 -1.465 49.495 -5 50 C-4.67 49.34 -4.34 48.68 -4 48 C-2.68 48 -1.36 48 0 48 C0 32.16 0 16.32 0 0 Z " fill="#104C58" transform="translate(198,444)"/>
<path d="M0 0 C1.75595287 2.28273873 3.27066885 4.48118907 4.6875 7 C8.49975819 11.94563225 13.27950693 13.92338257 19.375 14.9375 C25.30883675 15.33718849 31.2459867 14.30542144 35.89453125 10.4140625 C38.7353595 7.24837068 40.75450916 4.11011976 42 0 C42.75 1.5625 42.75 1.5625 43 4 C40.43857233 10.12515313 36.97591655 13.17544569 31 16 C23.6530028 18.29776606 16.23976835 17.48681087 9.26953125 14.40234375 C4.52959259 11.47353484 1.67034469 7.29832465 0.125 2 C0.08375 1.34 0.0425 0.68 0 0 Z " fill="#135965" transform="translate(304,462)"/>
<path d="M0 0 C0.66 0.66 1.32 1.32 2 2 C-3.07914915 10.26712574 -7.51111998 15.72797241 -17 19 C-22.96272582 19.99378764 -28.48451514 19.98867849 -34.5 19.5625 C-35.32242188 19.51029297 -36.14484375 19.45808594 -36.9921875 19.40429688 C-38.99522899 19.27619538 -40.99768871 19.13904939 -43 19 C-43 18.67 -43 18.34 -43 18 C-42.07888428 17.97812622 -42.07888428 17.97812622 -41.13916016 17.95581055 C-38.30054015 17.88038055 -35.46297742 17.78404224 -32.625 17.6875 C-31.65949219 17.66494141 -30.69398438 17.64238281 -29.69921875 17.61914062 C-20.40608537 17.2761055 -11.60632306 16.06722932 -5 9 C-3.15174975 6.08300026 -1.52491794 3.09706785 0 0 Z " fill="#1F2D3A" transform="translate(635,594)"/>
<path d="M0 0 C0.02685412 2.31243792 0.04632841 4.6249627 0.0625 6.9375 C0.07410156 8.22527344 0.08570313 9.51304687 0.09765625 10.83984375 C0 14 0 14 -1 15 C-1.15655027 16.48638992 -1.25066943 17.97949127 -1.31640625 19.47265625 C-1.35830078 20.37177734 -1.40019531 21.27089844 -1.44335938 22.19726562 C-1.48267578 23.14279297 -1.52199219 24.08832031 -1.5625 25.0625 C-1.60568359 26.01189453 -1.64886719 26.96128906 -1.69335938 27.93945312 C-1.79979276 30.29281353 -1.90181008 32.64628354 -2 35 C-2.33 35 -2.66 35 -3 35 C-3 24.11 -3 13.22 -3 2 C-9.6 2 -16.2 2 -23 2 C-23 1.67 -23 1.34 -23 1 C-19.54170353 0.83256252 -16.08335707 0.66618079 -12.625 0.5 C-11.64015625 0.45230469 -10.6553125 0.40460938 -9.640625 0.35546875 C-8.69960938 0.31035156 -7.75859375 0.26523437 -6.7890625 0.21875 C-5.91975098 0.17685547 -5.05043945 0.13496094 -4.15478516 0.09179688 C-2.77077412 0.03283606 -1.38526637 0 0 0 Z " fill="#197487" transform="translate(271,386)"/>
<path d="M0 0 C0.33 0.66 0.66 1.32 1 2 C15.19 2 29.38 2 44 2 C44 2.33 44 2.66 44 3 C28.82 3 13.64 3 -2 3 C-2 4.65 -2 6.3 -2 8 C-2.99 8 -3.98 8 -5 8 C-5 7.34 -5 6.68 -5 6 C-4.34 6 -3.68 6 -3 6 C-3 5.01 -3 4.02 -3 3 C-3.66 3 -4.32 3 -5 3 C-5 2.34 -5 1.68 -5 1 C-3.35 0.67 -1.7 0.34 0 0 Z " fill="#354B5F" transform="translate(573,527)"/>
<path d="M0 0 C0.33 0 0.66 0 1 0 C1 9.24 1 18.48 1 28 C0.01 28 -0.98 28 -2 28 C-1.67 27.34 -1.34 26.68 -1 26 C-1.66 26 -2.32 26 -3 26 C-3 23.03 -3 20.06 -3 17 C-2.67 17 -2.34 17 -2 17 C-1.34 11.39 -0.68 5.78 0 0 Z " fill="#186979" transform="translate(491,464)"/>
<path d="M0 0 C0.25 7.625 0.25 7.625 -2 11 C-2 7.7 -2 4.4 -2 1 C-8.27 1 -14.54 1 -21 1 C-21 1.66 -21 2.32 -21 3 C-21.66 2.67 -22.32 2.34 -23 2 C-22.67 1.01 -22.34 0.02 -22 -1 C-19.27132267 -1.22262638 -16.54308042 -1.42852324 -13.8125 -1.625 C-13.04357422 -1.68945312 -12.27464844 -1.75390625 -11.48242188 -1.8203125 C-7.11875319 -2.11996357 -3.98914662 -2.09450183 0 0 Z " fill="#1B6C7C" transform="translate(693,413)"/>
<path d="M0 0 C0.33 0 0.66 0 1 0 C1.99250545 5.70690634 2.10477512 11.21408489 2 17 C-0.79996295 17.93332098 -2.89747267 18.18693372 -5.8125 18.375 C-10.15523942 18.75538593 -13.15644104 19.88604257 -17 22 C-17.66 21.67 -18.32 21.34 -19 21 C-12.85028943 15.5531135 -7.88229034 15.88235388 0 16 C0 10.72 0 5.44 0 0 Z " fill="#17606D" transform="translate(429,416)"/>
<path d="M0 0 C13.51234976 -0.46954111 20.35636714 1.190644 31 10 C30.67 10.99 30.34 11.98 30 13 C28.5 11.625 28.5 11.625 27 10 C27 9.34 27 8.68 27 8 C17.91364017 3.40531011 10.26868251 1.32190227 0 1 C0 0.67 0 0.34 0 0 Z " fill="#202F3B" transform="translate(495,546)"/>
<path d="M0 0 C4.46228206 2.47443034 8.39324916 5.39324916 12 9 C11.67 9.99 11.34 10.98 11 12 C10.34 11.278125 9.68 10.55625 9 9.8125 C1.4826081 2.4825223 -5.61300425 0.97742797 -16 0 C-10.80878484 -3.23528338 -5.57483286 -1.70114385 0 0 Z " fill="#1C2934" transform="translate(620,547)"/>
<path d="M0 0 C6.27 0 12.54 0 19 0 C14.77746115 2.11126943 12.85998477 2.2171997 8.25 2.125 C7.07953125 2.10695313 5.9090625 2.08890625 4.703125 2.0703125 C3.36507812 2.03550781 3.36507812 2.03550781 2 2 C2 4.97 2 7.94 2 11 C1.34 11 0.68 11 0 11 C0 7.37 0 3.74 0 0 Z " fill="#146170" transform="translate(198,444)"/>
<path d="M0 0 C0.33 0.99 0.66 1.98 1 3 C-5.37468899 9.72883838 -5.37468899 9.72883838 -10.19824219 10.22705078 C-10.97329102 10.21657715 -11.74833984 10.20610352 -12.546875 10.1953125 C-13.81337891 10.18564453 -13.81337891 10.18564453 -15.10546875 10.17578125 C-15.97816406 10.15902344 -16.85085938 10.14226563 -17.75 10.125 C-19.08224609 10.11146484 -19.08224609 10.11146484 -20.44140625 10.09765625 C-22.62788058 10.07414577 -24.81380094 10.04128499 -27 10 C-27 9.67 -27 9.34 -27 9 C-26.12263184 8.91697632 -26.12263184 8.91697632 -25.22753906 8.83227539 C-22.56804892 8.57882735 -19.90903168 8.32071175 -17.25 8.0625 C-16.32960938 7.97548828 -15.40921875 7.88847656 -14.4609375 7.79882812 C-13.12675781 7.66831055 -13.12675781 7.66831055 -11.765625 7.53515625 C-10.94868164 7.456604 -10.13173828 7.37805176 -9.29003906 7.29711914 C-7.10535719 7.01366948 -5.09245205 6.69221167 -3 6 C-1.75825204 4.0998823 -1.75825204 4.0998823 -1 2 C-0.67 1.34 -0.34 0.68 0 0 Z " fill="#131D25" transform="translate(322,604)"/>
<path d="M0 0 C7.04860081 1.26027198 12.74618774 4.01469252 17.96875 9.00390625 C17.96875 9.99390625 17.96875 10.98390625 17.96875 12.00390625 C17.47246094 11.60558594 16.97617187 11.20726562 16.46484375 10.796875 C9.9883191 5.74592314 4.27062299 2.85103615 -4.03125 2.00390625 C-2.03125 0.00390625 -2.03125 0.00390625 0 0 Z " fill="#21313D" transform="translate(320.03125,527.99609375)"/>
<path d="M0 0 C0.12375 0.639375 0.2475 1.27875 0.375 1.9375 C0.58125 2.618125 0.7875 3.29875 1 4 C1.66 4.33 2.32 4.66 3 5 C2.34 5 1.68 5 1 5 C1.33 5.99 1.66 6.98 2 8 C1.01 7.67 0.02 7.34 -1 7 C-5.04587369 5.87067087 -9.07295376 5.66258818 -13.25 5.4375 C-14.36761719 5.37272461 -14.36761719 5.37272461 -15.5078125 5.30664062 C-17.338349 5.20103275 -19.16915176 5.10005799 -21 5 C-21 4.67 -21 4.34 -21 4 C-14.07 4 -7.14 4 0 4 C0 2.68 0 1.36 0 0 Z " fill="#154E5A" transform="translate(269,488)"/>
<path d="M0 0 C2.31 0 4.62 0 7 0 C5.25267359 6.26480445 3.02879721 10.88233868 -1 16 C-1 12.51038791 -0.09620626 10.88519705 1.5 7.8125 C1.9640625 6.91144531 2.428125 6.01039063 2.90625 5.08203125 C3.2671875 4.39496094 3.628125 3.70789063 4 3 C2.68 2.01 1.36 1.02 0 0 Z " fill="#1C5965" transform="translate(832,469)"/>
<path d="M0 0 C0.66 0 1.32 0 2 0 C2 1.32 2 2.64 2 4 C7.61 4 13.22 4 19 4 C19 4.33 19 4.66 19 5 C8.44191344 6.33257403 8.44191344 6.33257403 4 5 C3.67 5.66 3.34 6.32 3 7 C1.5 5.75 1.5 5.75 0 4 C0 2.68 0 1.36 0 0 Z " fill="#11424E" transform="translate(670,488)"/>
<path d="M0 0 C0.99 0.33 1.98 0.66 3 1 C-0.11016455 4.28788824 -3.01618925 6.83735988 -7 9 C-5.44499019 5.18315774 -2.96404505 2.80804268 0 0 Z " fill="#25A1BA" transform="translate(516,417)"/>
<path d="M0 0 C0 3 0 3 -1 4.625 C-4.13796443 6.78235055 -7.23442808 6.69134656 -11 7 C-8.80982632 5.53988421 -6.66442255 4.21860241 -4.375 2.9375 C-1.25421565 1.34128067 -1.25421565 1.34128067 0 0 Z " fill="#131F27" transform="translate(320,564)"/>
<path d="M0 0 C0.66 0 1.32 0 2 0 C0.55746343 3.36591866 -1.33264727 5.51047079 -4 8 C-4.66 7.67 -5.32 7.34 -6 7 C-5.04882866 5.8274869 -4.08882991 4.66212985 -3.125 3.5 C-2.59132813 2.8503125 -2.05765625 2.200625 -1.5078125 1.53125 C-0.76144531 0.77328125 -0.76144531 0.77328125 0 0 Z " fill="#249EB8" transform="translate(699,417)"/>
<path d="M0 0 C4 1 4 1 4 1 Z " fill="#2D95AB" transform="translate(816,461)"/>
<path d="M0 0 C3 1 3 1 3 1 Z " fill="#425D73" transform="translate(292,568)"/>
<path d="M0 0 C3 1 3 1 3 1 Z " fill="#445F75" transform="translate(501,548)"/>
<path d="M0 0 C0.66 0 1.32 0 2 0 C1.67 0.66 1.34 1.32 1 2 C0.67 1.34 0.34 0.68 0 0 Z " fill="#3391A7" transform="translate(693,494)"/>
<path d="M0 0 C0.33 0.66 0.66 1.32 1 2 C0.34 1.67 -0.32 1.34 -1 1 C-0.67 0.67 -0.34 0.34 0 0 Z " fill="#3292A7" transform="translate(493,494)"/>
<path d="" fill="#3295AC" transform="translate(0,0)"/>
<path d="" fill="#3194A9" transform="translate(0,0)"/>
<path d="" fill="#2C94AB" transform="translate(0,0)"/>
<path d="" fill="#2A97AD" transform="translate(0,0)"/>
<path d="M0 0 C3 1 3 1 3 1 Z " fill="#3592A6" transform="translate(832,467)"/>
<path d="M0 0 C0.99 0.495 0.99 0.495 2 1 C1.01 1.495 1.01 1.495 0 2 C0 1.34 0 0.68 0 0 Z " fill="#3298AB" transform="translate(835,461)"/>
<path d="M0 0 C3 1 3 1 3 1 Z " fill="#2E97AC" transform="translate(823,461)"/>
<path d="" fill="#2D9DB2" transform="translate(0,0)"/>
<path d="" fill="#2F99AD" transform="translate(0,0)"/>
<path d="M0 0 C3 1 3 1 3 1 Z " fill="#3097AD" transform="translate(267,384)"/>
<path d="M0 0 C2 1 2 1 2 1 Z " fill="#4A637B" transform="translate(425,629)"/>
<path d="M0 0 C2 1 2 1 2 1 Z " fill="#4A637B" transform="translate(378,629)"/>
<path d="" fill="#49657B" transform="translate(0,0)"/>
<path d="" fill="#465F75" transform="translate(0,0)"/>
<path d="M0 0 C2 1 2 1 2 1 Z " fill="#425E76" transform="translate(315,590)"/>
<path d="M0 0 C2 1 2 1 2 1 Z " fill="#435F76" transform="translate(313,589)"/>
<path d="" fill="#49637A" transform="translate(0,0)"/>
<path d="" fill="#48647E" transform="translate(0,0)"/>
<path d="" fill="#445E75" transform="translate(0,0)"/>
<path d="" fill="#466278" transform="translate(0,0)"/>
<path d="" fill="#466077" transform="translate(0,0)"/>
<path d="" fill="#476178" transform="translate(0,0)"/>
<path d="M0 0 C2 1 2 1 2 1 Z " fill="#435E77" transform="translate(314,548)"/>
<path d="" fill="#47667F" transform="translate(0,0)"/>
<path d="M0 0 C2 1 2 1 2 1 Z " fill="#358FA7" transform="translate(726,495)"/>
<path d="" fill="#3294A7" transform="translate(0,0)"/>
<path d="M0 0 C2 1 2 1 2 1 Z " fill="#328CA2" transform="translate(542,495)"/>
<path d="M0 0 C2 1 2 1 2 1 Z " fill="#328FA4" transform="translate(509,495)"/>
<path d="" fill="#3495A9" transform="translate(0,0)"/>
<path d="" fill="#3694A7" transform="translate(0,0)"/>
<path d="M0 0 C2 1 2 1 2 1 Z " fill="#3290A4" transform="translate(343,495)"/>
<path d="M0 0 C2 1 2 1 2 1 Z " fill="#3094A7" transform="translate(305,495)"/>
<path d="M0 0 C2 1 2 1 2 1 Z " fill="#3391A6" transform="translate(265,495)"/>
<path d="M0 0 C2 1 2 1 2 1 Z " fill="#3692A7" transform="translate(193,495)"/>
<path d="" fill="#3895A8" transform="translate(0,0)"/>
<path d="M0 0 C2 1 2 1 2 1 Z " fill="#3990A5" transform="translate(176,495)"/>
<path d="" fill="#3498AC" transform="translate(0,0)"/>
<path d="M0 0 C2 1 2 1 2 1 Z " fill="#3597AC" transform="translate(451,494)"/>
<path d="" fill="#2F96AC" transform="translate(0,0)"/>
<path d="" fill="#2B95AC" transform="translate(0,0)"/>
<path d="" fill="#2E96AD" transform="translate(0,0)"/>
<path d="M0 0 C2 1 2 1 2 1 Z " fill="#3891A5" transform="translate(836,467)"/>
<path d="M0 0 C2 1 2 1 2 1 Z " fill="#3192A7" transform="translate(823,467)"/>
<path d="M0 0 C2 1 2 1 2 1 Z " fill="#2D94AA" transform="translate(817,467)"/>
<path d="M0 0 C2 1 2 1 2 1 Z " fill="#2E97AD" transform="translate(832,461)"/>
<path d="M0 0 C2 1 2 1 2 1 Z " fill="#2C97AC" transform="translate(801,461)"/>
<path d="M0 0 C2 1 2 1 2 1 Z " fill="#2B97AB" transform="translate(796,461)"/>
<path d="M0 0 C2 1 2 1 2 1 Z " fill="#2B98AC" transform="translate(792,461)"/>
<path d="" fill="#2C9BB4" transform="translate(0,0)"/>
<path d="" fill="#2B96AC" transform="translate(0,0)"/>
<path d="" fill="#2E9BB1" transform="translate(0,0)"/>
<path d="M0 0 C2 1 2 1 2 1 Z " fill="#2F9BB3" transform="translate(813,443)"/>
<path d="" fill="#2D9BB2" transform="translate(0,0)"/>
<path d="M0 0 C2 1 2 1 2 1 Z " fill="#3595A8" transform="translate(729,411)"/>
<path d="M0 0 C2 1 2 1 2 1 Z " fill="#3498AC" transform="translate(545,411)"/>
<path d="M0 0 C2 1 2 1 2 1 Z " fill="#3795A9" transform="translate(809,410)"/>
<path d="M0 0 C2 1 2 1 2 1 Z " fill="#3496AC" transform="translate(790,410)"/>
<path d="M0 0 C2 1 2 1 2 1 Z " fill="#3194A8" transform="translate(456,410)"/>
<path d="M0 0 C2 1 2 1 2 1 Z " fill="#339FB2" transform="translate(264,384)"/>
<path d="M0 0 C2 1 2 1 2 1 Z " fill="#3295A9" transform="translate(197,384)"/>
<path d="M0 0 C2 1 2 1 2 1 Z " fill="#3198AB" transform="translate(194,384)"/>
<path d="M0 0 C2 1 2 1 2 1 Z " fill="#35A0B2" transform="translate(186,384)"/>
<path d="" fill="#466072" transform="translate(0,0)"/>
<path d="" fill="#4F6D82" transform="translate(0,0)"/>
<path d="" fill="#486379" transform="translate(0,0)"/>
<path d="" fill="#4E6579" transform="translate(0,0)"/>
<path d="" fill="#4B647E" transform="translate(0,0)"/>
<path d="" fill="#4F6A83" transform="translate(0,0)"/>
<path d="" fill="#4A6277" transform="translate(0,0)"/>
<path d="" fill="#4B677D" transform="translate(0,0)"/>
<path d="" fill="#4A637A" transform="translate(0,0)"/>
<path d="" fill="#4B647C" transform="translate(0,0)"/>
<path d="" fill="#456177" transform="translate(0,0)"/>
<path d="" fill="#4B6579" transform="translate(0,0)"/>
<path d="" fill="#4B6578" transform="translate(0,0)"/>
<path d="" fill="#4C647A" transform="translate(0,0)"/>
<path d="" fill="#435D77" transform="translate(0,0)"/>
<path d="" fill="#47637B" transform="translate(0,0)"/>
<path d="" fill="#49657C" transform="translate(0,0)"/>
<path d="" fill="#4A637A" transform="translate(0,0)"/>
<path d="" fill="#49647C" transform="translate(0,0)"/>
<path d="" fill="#4A627A" transform="translate(0,0)"/>
<path d="" fill="#49647D" transform="translate(0,0)"/>
<path d="" fill="#455F75" transform="translate(0,0)"/>
<path d="" fill="#456279" transform="translate(0,0)"/>
<path d="" fill="#4D6681" transform="translate(0,0)"/>
<path d="" fill="#4A6379" transform="translate(0,0)"/>
<path d="" fill="#476278" transform="translate(0,0)"/>
<path d="" fill="#496479" transform="translate(0,0)"/>
<path d="" fill="#486078" transform="translate(0,0)"/>
<path d="" fill="#48637B" transform="translate(0,0)"/>
<path d="" fill="#455F76" transform="translate(0,0)"/>
<path d="" fill="#466074" transform="translate(0,0)"/>
<path d="" fill="#486378" transform="translate(0,0)"/>
<path d="" fill="#4A657B" transform="translate(0,0)"/>
<path d="" fill="#445F77" transform="translate(0,0)"/>
<path d="" fill="#48617C" transform="translate(0,0)"/>
<path d="" fill="#455E74" transform="translate(0,0)"/>
<path d="" fill="#466378" transform="translate(0,0)"/>
<path d="" fill="#446177" transform="translate(0,0)"/>
<path d="" fill="#486279" transform="translate(0,0)"/>
<path d="" fill="#465E73" transform="translate(0,0)"/>
<path d="" fill="#435B79" transform="translate(0,0)"/>
<path d="" fill="#455F78" transform="translate(0,0)"/>
<path d="" fill="#455F74" transform="translate(0,0)"/>
<path d="" fill="#435F75" transform="translate(0,0)"/>
<path d="" fill="#425C73" transform="translate(0,0)"/>
<path d="" fill="#48647D" transform="translate(0,0)"/>
<path d="" fill="#446178" transform="translate(0,0)"/>
<path d="" fill="#465E73" transform="translate(0,0)"/>
<path d="" fill="#456475" transform="translate(0,0)"/>
<path d="" fill="#47637A" transform="translate(0,0)"/>
<path d="" fill="#46637A" transform="translate(0,0)"/>
<path d="" fill="#455F74" transform="translate(0,0)"/>
<path d="" fill="#49627C" transform="translate(0,0)"/>
<path d="" fill="#496074" transform="translate(0,0)"/>
<path d="" fill="#455F75" transform="translate(0,0)"/>
<path d="" fill="#476077" transform="translate(0,0)"/>
<path d="" fill="#486178" transform="translate(0,0)"/>
<path d="" fill="#456177" transform="translate(0,0)"/>
<path d="" fill="#466178" transform="translate(0,0)"/>
<path d="" fill="#435F75" transform="translate(0,0)"/>
<path d="" fill="#445F76" transform="translate(0,0)"/>
<path d="" fill="#435F74" transform="translate(0,0)"/>
<path d="" fill="#49627A" transform="translate(0,0)"/>
<path d="" fill="#446076" transform="translate(0,0)"/>
<path d="" fill="#446277" transform="translate(0,0)"/>
<path d="" fill="#466178" transform="translate(0,0)"/>
<path d="" fill="#456178" transform="translate(0,0)"/>
<path d="" fill="#445F76" transform="translate(0,0)"/>
<path d="" fill="#446278" transform="translate(0,0)"/>
<path d="" fill="#466880" transform="translate(0,0)"/>
<path d="" fill="#4B6C82" transform="translate(0,0)"/>
<path d="" fill="#47687F" transform="translate(0,0)"/>
<path d="" fill="#476D85" transform="translate(0,0)"/>
<path d="" fill="#4A6A81" transform="translate(0,0)"/>
<path d="" fill="#486C86" transform="translate(0,0)"/>
<path d="" fill="#47667E" transform="translate(0,0)"/>
<path d="" fill="#4B758A" transform="translate(0,0)"/>
<path d="" fill="#47768D" transform="translate(0,0)"/>
<path d="" fill="#3997AB" transform="translate(0,0)"/>
<path d="" fill="#3592A3" transform="translate(0,0)"/>
<path d="" fill="#3491A8" transform="translate(0,0)"/>
<path d="" fill="#3190A2" transform="translate(0,0)"/>
<path d="" fill="#3194AB" transform="translate(0,0)"/>
<path d="" fill="#2E95A8" transform="translate(0,0)"/>
<path d="" fill="#3493A8" transform="translate(0,0)"/>
<path d="" fill="#368FA6" transform="translate(0,0)"/>
<path d="" fill="#3995AA" transform="translate(0,0)"/>
<path d="" fill="#3995A9" transform="translate(0,0)"/>
<path d="" fill="#3693A6" transform="translate(0,0)"/>
<path d="" fill="#3A96A8" transform="translate(0,0)"/>
<path d="" fill="#3598AD" transform="translate(0,0)"/>
<path d="" fill="#3796AF" transform="translate(0,0)"/>
<path d="" fill="#3496AB" transform="translate(0,0)"/>
<path d="" fill="#3699B0" transform="translate(0,0)"/>
<path d="" fill="#3597AC" transform="translate(0,0)"/>
<path d="" fill="#3392A9" transform="translate(0,0)"/>
<path d="" fill="#3696AE" transform="translate(0,0)"/>
<path d="" fill="#3896AC" transform="translate(0,0)"/>
<path d="" fill="#3892A4" transform="translate(0,0)"/>
<path d="" fill="#3996AB" transform="translate(0,0)"/>
<path d="" fill="#3897AB" transform="translate(0,0)"/>
<path d="" fill="#3795A5" transform="translate(0,0)"/>
<path d="" fill="#3791A6" transform="translate(0,0)"/>
<path d="" fill="#3396A6" transform="translate(0,0)"/>
<path d="" fill="#3394AA" transform="translate(0,0)"/>
<path d="" fill="#3094A5" transform="translate(0,0)"/>
<path d="" fill="#3194A9" transform="translate(0,0)"/>
<path d="" fill="#3390A7" transform="translate(0,0)"/>
<path d="" fill="#3192A8" transform="translate(0,0)"/>
<path d="" fill="#3095AD" transform="translate(0,0)"/>
<path d="" fill="#3395A7" transform="translate(0,0)"/>
<path d="" fill="#2D99AD" transform="translate(0,0)"/>
<path d="" fill="#3297AC" transform="translate(0,0)"/>
<path d="" fill="#2E93A9" transform="translate(0,0)"/>
<path d="" fill="#2D92A6" transform="translate(0,0)"/>
<path d="" fill="#3096B0" transform="translate(0,0)"/>
<path d="" fill="#2F96AB" transform="translate(0,0)"/>
<path d="" fill="#2D96AD" transform="translate(0,0)"/>
<path d="" fill="#2D96AC" transform="translate(0,0)"/>
<path d="" fill="#2E98AC" transform="translate(0,0)"/>
<path d="" fill="#2F97AB" transform="translate(0,0)"/>
<path d="" fill="#2E96AC" transform="translate(0,0)"/>
<path d="" fill="#309AAF" transform="translate(0,0)"/>
<path d="" fill="#2F9AAF" transform="translate(0,0)"/>
<path d="" fill="#3398AD" transform="translate(0,0)"/>
<path d="" fill="#2E9CB4" transform="translate(0,0)"/>
<path d="" fill="#3097AE" transform="translate(0,0)"/>
<path d="" fill="#319DB2" transform="translate(0,0)"/>
<path d="" fill="#3096AE" transform="translate(0,0)"/>
<path d="" fill="#2D97AC" transform="translate(0,0)"/>
<path d="" fill="#3094A8" transform="translate(0,0)"/>
<path d="" fill="#2F92A7" transform="translate(0,0)"/>
<path d="" fill="#2C96B0" transform="translate(0,0)"/>
<path d="" fill="#309BB0" transform="translate(0,0)"/>
<path d="" fill="#3894A7" transform="translate(0,0)"/>
<path d="" fill="#2D99AE" transform="translate(0,0)"/>
<path d="" fill="#2A96AC" transform="translate(0,0)"/>
<path d="" fill="#2D9BB1" transform="translate(0,0)"/>
<path d="" fill="#2D98AB" transform="translate(0,0)"/>
<path d="" fill="#3794A6" transform="translate(0,0)"/>
<path d="" fill="#2F94AB" transform="translate(0,0)"/>
<path d="" fill="#2E96AA" transform="translate(0,0)"/>
<path d="" fill="#2A98AD" transform="translate(0,0)"/>
<path d="" fill="#2B97AE" transform="translate(0,0)"/>
<path d="" fill="#2E98AE" transform="translate(0,0)"/>
<path d="" fill="#2F99AE" transform="translate(0,0)"/>
<path d="" fill="#2B93AB" transform="translate(0,0)"/>
<path d="" fill="#309CB0" transform="translate(0,0)"/>
<path d="" fill="#2E99B1" transform="translate(0,0)"/>
<path d="" fill="#2F98AF" transform="translate(0,0)"/>
<path d="" fill="#2C96AD" transform="translate(0,0)"/>
<path d="" fill="#319BB0" transform="translate(0,0)"/>
<path d="" fill="#3499B0" transform="translate(0,0)"/>
<path d="" fill="#319DB5" transform="translate(0,0)"/>
<path d="" fill="#2D9CB3" transform="translate(0,0)"/>
<path d="" fill="#2F9BB0" transform="translate(0,0)"/>
<path d="" fill="#2B9CB6" transform="translate(0,0)"/>
<path d="" fill="#2E9AB3" transform="translate(0,0)"/>
<path d="" fill="#2C99AF" transform="translate(0,0)"/>
<path d="" fill="#2E9AB3" transform="translate(0,0)"/>
<path d="" fill="#3098AF" transform="translate(0,0)"/>
<path d="" fill="#2D99AC" transform="translate(0,0)"/>
<path d="" fill="#2F98AD" transform="translate(0,0)"/>
<path d="" fill="#2E98AD" transform="translate(0,0)"/>
<path d="" fill="#309FB6" transform="translate(0,0)"/>
<path d="" fill="#2B95AE" transform="translate(0,0)"/>
<path d="" fill="#289DB4" transform="translate(0,0)"/>
<path d="" fill="#309BB3" transform="translate(0,0)"/>
<path d="" fill="#3097B0" transform="translate(0,0)"/>
<path d="" fill="#2B98AF" transform="translate(0,0)"/>
<path d="" fill="#3099AD" transform="translate(0,0)"/>
<path d="" fill="#2F9AB0" transform="translate(0,0)"/>
<path d="" fill="#2D9CAF" transform="translate(0,0)"/>
<path d="" fill="#2C96AD" transform="translate(0,0)"/>
<path d="" fill="#2A98B0" transform="translate(0,0)"/>
<path d="" fill="#3198AC" transform="translate(0,0)"/>
<path d="" fill="#3098AD" transform="translate(0,0)"/>
<path d="" fill="#2F97AE" transform="translate(0,0)"/>
<path d="" fill="#2D98AD" transform="translate(0,0)"/>
<path d="" fill="#2C97AC" transform="translate(0,0)"/>
<path d="" fill="#2D98AF" transform="translate(0,0)"/>
<path d="" fill="#2F98AC" transform="translate(0,0)"/>
<path d="" fill="#319BAF" transform="translate(0,0)"/>
<path d="" fill="#2C9AB2" transform="translate(0,0)"/>
<path d="" fill="#309BAF" transform="translate(0,0)"/>
<path d="" fill="#3896A8" transform="translate(0,0)"/>
<path d="" fill="#329AB0" transform="translate(0,0)"/>
<path d="" fill="#2F99B0" transform="translate(0,0)"/>
<path d="" fill="#3C98A9" transform="translate(0,0)"/>
<path d="" fill="#319AAE" transform="translate(0,0)"/>
<path d="" fill="#2F9FB4" transform="translate(0,0)"/>
<path d="" fill="#3099AC" transform="translate(0,0)"/>
<path d="" fill="#2E99AD" transform="translate(0,0)"/>
<path d="" fill="#2C9AAF" transform="translate(0,0)"/>
<path d="" fill="#3197AA" transform="translate(0,0)"/>
<path d="" fill="#3596AC" transform="translate(0,0)"/>
<path d="" fill="#3296AB" transform="translate(0,0)"/>
<path d="" fill="#3097AC" transform="translate(0,0)"/>
<path d="" fill="#3297B0" transform="translate(0,0)"/>
<path d="" fill="#3591A5" transform="translate(0,0)"/>
<path d="" fill="#3292A5" transform="translate(0,0)"/>
<path d="" fill="#3796AD" transform="translate(0,0)"/>
<path d="" fill="#3299AD" transform="translate(0,0)"/>
<path d="" fill="#3798AB" transform="translate(0,0)"/>
<path d="" fill="#3398AC" transform="translate(0,0)"/>
<path d="" fill="#309AAF" transform="translate(0,0)"/>
<path d="" fill="#339BB2" transform="translate(0,0)"/>
<path d="" fill="#3198AD" transform="translate(0,0)"/>
<path d="" fill="#319DB1" transform="translate(0,0)"/>
<path d="" fill="#339DB0" transform="translate(0,0)"/>
<path d="" fill="#349DB2" transform="translate(0,0)"/>
<path d="" fill="#329DAF" transform="translate(0,0)"/>
<path d="" fill="#339CB0" transform="translate(0,0)"/>
<path d="" fill="#36A4B7" transform="translate(0,0)"/>
</svg>
